<svg width="53" height="52" viewBox="0 0 53 52" fill="none" xmlns="http://www.w3.org/2000/svg">
<path d="M40.5571 0.0530586C40.036 0.161057 39.5911 0.431053 39.1336 0.927841L38.7904 1.29503L38.6506 12.1488C38.5743 18.1211 38.4854 23.8018 38.4472 24.7737L38.3837 26.5557L37.4686 27.5601C36.9729 28.1217 36.5153 28.5969 36.4518 28.6293C36.3882 28.6617 36.0705 28.6077 35.7273 28.5105C35.2698 28.3809 35.0283 28.3701 34.7741 28.4565C34.164 28.6509 34.0623 28.5969 34.0623 28.1325C34.0623 27.8409 34.1259 27.6681 34.253 27.6357C34.736 27.4737 34.3038 27.1281 31.4187 25.3569C29.7664 24.3309 26.6017 22.3762 24.4029 21.0046C22.2041 19.6438 20.3484 18.5207 20.2722 18.5207C20.2086 18.5207 19.4588 18.9743 18.6199 19.5251C17.7811 20.0758 14.718 22.0738 11.8201 23.9638C8.9223 25.8537 6.41846 27.5169 6.25324 27.6681C6.08801 27.8193 5.99904 28.0137 6.03717 28.1217C6.06259 28.2189 5.8211 28.8561 5.47794 29.5364C5.13477 30.2168 3.76211 32.96 2.42758 35.6167C0.838849 38.781 0 40.5846 0 40.8222V41.2002H26.5H53V40.833C53 40.6386 52.6568 39.1698 52.2501 37.5715C51.424 34.3747 50.5216 30.8648 49.2506 25.9185C48.793 24.1366 48.2465 22.0198 48.0432 21.2206C47.8398 20.4214 47.4077 18.7367 47.0899 17.4947C46.7722 16.2419 46.3655 14.6868 46.2002 14.0388C45.1834 10.0644 44.2556 6.45732 43.6456 4.10297C43.2643 2.61261 42.8957 1.17624 42.8194 0.906242C42.705 0.474251 42.6161 0.377052 42.2221 0.236656C41.5866 -0.000938416 41.0782 -0.0549393 40.5571 0.0530586ZM40.9765 0.668648C41.0146 0.841442 41.0655 1.20864 41.1036 1.51103C41.1799 2.07262 41.8026 6.45732 42.1331 8.74688C42.4 10.5612 43.0228 14.9027 43.4041 17.6027C43.582 18.8447 43.8362 20.6482 43.976 21.5986C44.459 24.9681 45.1199 29.612 45.3105 30.9944C45.5775 32.9276 45.6156 33.1004 45.7808 33.1004C45.946 33.1004 45.9206 32.8304 44.7386 24.7305C44.3446 21.9874 43.7472 17.9051 43.4041 15.4427C43.2261 14.19 42.9719 12.3972 42.8321 11.4468C42.6923 10.4964 42.4381 8.69288 42.2602 7.4509C42.0822 6.19813 41.8281 4.42697 41.6882 3.50899C41.2561 0.539051 41.2434 0.377052 41.4849 0.377052C41.5993 0.377052 41.6882 0.409454 41.6882 0.452652C41.6882 0.506649 41.8026 1.12224 41.9424 1.83502C42.095 2.54781 42.5779 4.97776 43.0228 7.23491C43.7854 11.1012 44.3954 14.1684 45.8952 21.6526C47.4331 29.3852 48.094 32.6684 48.5516 35.0443C49.1743 38.1979 49.187 38.2195 49.3396 38.0899C49.454 37.9927 49.3904 37.6039 47.6619 28.9425C47.1662 26.4477 46.4799 22.9702 46.124 21.2206C45.7808 19.4711 45.1834 16.4795 44.8022 14.5788C44.4209 12.678 43.7345 9.22207 43.277 6.91092C42.8194 4.58897 42.3619 2.28861 42.2602 1.79182C42.0441 0.733444 42.0314 0.593048 42.1839 0.593048C42.2983 0.593048 42.4635 1.12224 43.0101 3.29299C43.188 3.97338 43.671 5.89574 44.1031 7.5589C46.0096 14.9999 46.2892 16.0691 46.6578 17.4947C46.8611 18.3263 47.2933 19.9786 47.5983 21.1666C48.183 23.4454 48.8058 25.8429 49.759 29.5904C50.5216 32.5388 51.64 36.8803 52.1103 38.7162C52.3264 39.5262 52.4916 40.2714 52.4916 40.3686C52.4916 40.5414 52.0722 40.5522 45.6029 40.5306L38.7014 40.4982V39.807C38.7014 39.1266 38.7014 39.1158 39.2734 38.7054C39.7436 38.3707 39.9597 38.2951 40.4554 38.2735C40.7858 38.2519 41.0528 38.2087 41.0528 38.1655C41.0528 38.0467 41.5993 38.1871 41.8535 38.3707C42.095 38.5543 42.1585 38.4031 41.917 38.1979C41.8026 38.1007 41.8535 38.0683 42.1712 38.0683C42.4 38.0683 42.5779 38.0251 42.5779 37.9603C42.5779 37.8631 41.9297 37.8955 41.4086 38.0251C41.1671 38.0899 41.0909 37.9063 41.3069 37.7983C41.3832 37.7659 41.434 37.6687 41.434 37.6039C41.434 37.5283 41.3324 37.5823 41.2053 37.7011C41.0146 37.9063 40.1631 38.2411 40.1631 38.1115C40.1631 37.9927 40.2393 37.9063 40.3156 37.9279C40.3791 37.9495 40.4173 37.8955 40.4173 37.8091C40.4173 37.7227 40.4808 37.6147 40.5698 37.5715C40.6587 37.5175 40.6715 37.5391 40.6079 37.6363C40.4808 37.8199 40.7477 37.6903 41.1417 37.3987C41.2815 37.2799 41.6501 37.1611 41.9424 37.1287C42.4127 37.0747 42.5144 37.0963 42.7304 37.3231C42.9338 37.5283 42.9592 37.5391 42.9084 37.3771C42.8321 37.1935 42.883 37.1827 43.3914 37.2367C43.8998 37.3015 43.9633 37.2799 43.9379 37.0963C43.9252 36.8803 43.7218 36.7831 43.7218 36.9991C43.7218 37.0639 43.5439 37.0963 43.3151 37.0747C43.0228 37.0531 42.883 36.9775 42.8576 36.8371C42.8194 36.6643 42.8703 36.6427 43.2643 36.6859C43.5185 36.7075 43.7218 36.6859 43.7218 36.6427C43.7218 36.5995 43.582 36.5563 43.4168 36.5563C43.2516 36.5563 43.0609 36.4915 42.9846 36.4159C42.8067 36.2431 42.9974 35.9623 43.2134 36.0703C43.3278 36.1351 43.3278 36.1783 43.2007 36.2539C43.0736 36.3295 43.0863 36.3403 43.277 36.2971C44.1158 36.1243 44.9928 35.8543 44.9928 35.7679C44.9928 35.6707 44.6878 35.7355 44.0014 35.9731L43.5947 36.1135L43.8743 35.6923C44.0904 35.3791 44.2556 35.2603 44.4844 35.2495C44.6623 35.2495 44.9165 35.1955 45.0564 35.1415C45.2343 35.0659 45.158 35.0551 44.7386 35.0983L44.1794 35.1631L44.4717 34.8931C44.6369 34.7527 44.8403 34.6555 44.942 34.6879C45.0436 34.7203 45.1199 34.6879 45.1199 34.6231C45.1199 34.5583 45.0309 34.5043 44.9165 34.5043C44.8149 34.5043 44.764 34.4503 44.8022 34.3963C44.8403 34.3315 44.8403 34.2883 44.8022 34.2883C44.7005 34.2883 44.2938 34.6231 44.2938 34.7095C44.2556 34.9795 44.065 35.2387 43.9125 35.1955C43.8235 35.1631 43.7091 35.1955 43.6583 35.2495C43.6201 35.3143 43.5185 35.3467 43.4549 35.3143C43.3914 35.2711 43.3405 35.3035 43.3405 35.3575C43.3405 35.4223 43.4041 35.4763 43.4676 35.4763C43.5439 35.4763 43.5312 35.5627 43.4422 35.6923C43.2007 36.0271 43.0736 35.9515 43.1245 35.5087C43.1753 35.0767 43.6074 34.5907 43.8743 34.6447C43.9633 34.6663 43.9887 34.6663 43.9379 34.6339C43.887 34.6123 43.9125 34.5151 44.0014 34.4179C44.154 34.2559 44.1412 34.2559 43.8362 34.4179C43.6583 34.5151 43.1245 34.6231 42.6288 34.6663C42.1458 34.7203 41.6247 34.8283 41.4595 34.9147C41.1799 35.0659 41.1799 35.0659 41.3069 34.7743L41.434 34.4827L40.9892 34.7203C40.5825 34.9363 40.5571 34.9363 40.6333 34.7527C40.7223 34.5583 41.2815 34.1263 41.4595 34.1263C41.5103 34.1263 41.6374 34.0291 41.7391 33.9103C42.0568 33.5432 42.1204 33.824 41.8153 34.2451L41.523 34.6339L41.7899 34.5151C41.9806 34.4287 42.0695 34.4287 42.0695 34.5043C42.0695 34.5583 42.1331 34.6123 42.2093 34.6123C42.2729 34.6123 42.2983 34.5583 42.2475 34.4827C42.1966 34.4071 42.2093 34.3963 42.2983 34.4395C42.3873 34.4827 42.705 34.3639 43.0101 34.1911C43.3278 34.0075 43.6456 33.8563 43.7218 33.8563C43.7981 33.8563 43.8362 33.8132 43.7981 33.7592C43.7472 33.7052 43.887 33.5972 44.1031 33.5108C44.3065 33.4352 44.4844 33.338 44.4844 33.2948C44.4844 33.1544 44.3319 33.1976 43.9125 33.4784C43.4803 33.7484 43.2134 33.7376 43.5312 33.4568C43.7472 33.284 43.7854 33.1004 43.6074 33.1004C43.5439 33.1004 43.3914 33.3164 43.2516 33.5864C43.0863 33.9319 42.9719 34.0507 42.8321 34.0075C42.2856 33.824 42.2602 33.824 42.4254 33.9751C42.6542 34.1911 42.6161 34.2883 42.2729 34.2883C41.9679 34.2883 41.9679 34.2775 42.1458 33.9751C42.2729 33.77 42.4635 33.6296 42.705 33.5864C42.9211 33.5432 43.0863 33.4676 43.0863 33.4136C43.0863 33.284 42.8703 33.284 42.7686 33.4244C42.7304 33.4784 42.5906 33.5324 42.4763 33.5324C42.3237 33.5324 42.4254 33.4136 42.7686 33.1544C43.2261 32.8088 43.3405 32.7764 43.9125 32.8088C44.2683 32.8304 44.4209 32.8304 44.2683 32.8088C43.9125 32.7548 43.887 32.4524 44.2302 32.4524C44.37 32.4524 44.4844 32.3984 44.4844 32.3444C44.4844 32.1716 44.2556 32.2148 43.976 32.4524C43.8362 32.5712 43.6964 32.6684 43.671 32.6684C43.5439 32.6684 43.6964 32.3336 43.9125 32.1284C44.0396 32.0096 44.0777 31.9124 44.0014 31.9124C43.9379 31.9124 43.6329 32.15 43.3405 32.4524C43.0482 32.744 42.7559 32.9924 42.6923 32.9924C42.6415 32.9924 42.6034 32.852 42.6161 32.6684C42.6288 32.4632 42.7177 32.3444 42.8321 32.3444C42.9465 32.3444 42.9592 32.312 42.8957 32.2472C42.6669 32.0636 41.3959 32.3552 41.1163 32.6468C40.5189 33.2732 40.3918 33.3812 40.4681 33.176C40.5062 33.0788 40.4935 32.9924 40.43 32.9924C40.2266 32.9924 40.1631 33.1328 40.3029 33.284C40.4046 33.3812 40.4046 33.4244 40.3156 33.4244C40.1504 33.4244 39.9089 32.7548 40.0233 32.6576C40.0614 32.6144 40.3156 32.528 40.5825 32.4524C40.8367 32.3876 41.0528 32.2904 41.0528 32.258C41.0528 32.2148 41.1799 32.1716 41.3451 32.1716C41.6501 32.15 43.3405 31.7396 43.4422 31.6424C43.6329 31.4912 43.3151 31.5128 42.7432 31.6964C42.3873 31.8044 42.0568 31.8692 42.0187 31.826C41.9679 31.7936 41.8789 31.826 41.8153 31.9124C41.7137 32.0528 41.6882 32.0528 41.6882 31.9124C41.6882 31.8152 41.7899 31.6316 41.9043 31.4804C42.0187 31.34 42.1204 31.124 42.1331 31.0052C42.1458 30.8756 42.1966 30.6272 42.2602 30.4544C42.4635 29.8172 42.1712 30.2924 41.8281 31.1672C41.4722 32.0852 41.1799 32.3876 41.1799 31.8476C41.1799 31.6856 41.1417 31.5884 41.0909 31.6316C40.9892 31.718 40.9765 31.7612 40.9384 32.0636C40.9384 32.1392 40.824 32.2364 40.7096 32.2688C40.5825 32.2904 40.3791 32.3552 40.252 32.3984C40.0995 32.4524 40.1885 32.2796 40.5317 31.8584C40.8113 31.5128 41.0146 31.1888 40.9765 31.1348C40.9384 31.0808 41.0528 31.07 41.2307 31.1132C41.4976 31.1672 41.5484 31.1456 41.4849 31.016C41.4468 30.9188 41.5484 30.7028 41.701 30.5192C41.8535 30.3356 41.9552 30.1628 41.917 30.1196C41.8662 30.0872 41.6755 30.26 41.4849 30.4976C41.1544 30.9296 40.824 31.1024 40.9765 30.7784C41.0146 30.692 40.9892 30.6164 40.9384 30.6164C40.8748 30.6164 40.7223 30.584 40.6079 30.5516C40.4935 30.5084 40.4173 30.5192 40.4427 30.5732C40.4935 30.746 39.9089 31.5884 39.7182 31.5884C39.5784 31.5884 39.5657 31.5128 39.6547 31.2536C39.7182 31.0592 39.7436 30.8648 39.6928 30.8C39.6547 30.7352 39.6674 30.7244 39.7436 30.7568C39.858 30.8108 40.5444 29.9144 40.5444 29.7092C40.5444 29.4932 40.2902 29.7092 40.1249 30.0656C39.8453 30.6488 39.6165 30.7568 39.7182 30.2492C39.7818 30.0116 39.7564 29.8604 39.6801 29.8604C39.6165 29.8604 39.4894 29.6768 39.4132 29.45C39.2861 29.0828 39.2861 29.0936 39.3623 29.6444C39.4894 30.6056 39.4894 30.9404 39.3751 30.9404C39.3242 30.9404 39.2734 30.8216 39.2734 30.6704C39.2734 30.5192 39.2225 30.4004 39.159 30.4004C39.0446 30.4004 39.2861 31.34 39.4513 31.5668C39.5784 31.7504 39.0827 32.1716 38.8412 32.096C38.676 32.042 38.6506 31.9772 38.765 31.8152C38.8285 31.6964 38.8921 31.4696 38.8921 31.3184V31.0268L38.6506 31.2752C38.4345 31.502 38.4218 31.5452 38.6125 31.5992C38.7904 31.6532 38.7904 31.664 38.5998 31.7288C38.3583 31.8044 38.2439 31.5992 38.4091 31.34C38.4727 31.232 38.4727 31.1564 38.4091 31.1564C38.1549 31.1564 38.1422 31.6316 38.3964 31.9016C38.5616 32.0852 38.6252 32.258 38.5743 32.4308C38.5235 32.6144 38.5489 32.6684 38.6506 32.6036C38.7523 32.5496 38.765 32.5712 38.7014 32.6576C38.6379 32.7548 38.5743 32.7656 38.4727 32.6792C38.2312 32.474 38.0787 32.5496 38.3074 32.7656C38.4854 32.9276 38.5235 33.0896 38.4599 33.446C38.3964 33.8779 38.3964 33.8887 38.5362 33.5864C38.6887 33.2516 38.8794 33.0788 39.0319 33.1652C39.0827 33.1868 39.1717 33.1544 39.2225 33.0896C39.2861 33.0032 39.2098 32.9816 38.9683 33.014C38.7396 33.0572 38.6379 33.0248 38.6379 32.9276C38.6379 32.8412 38.6887 32.7764 38.7523 32.7764C38.8158 32.7764 38.8921 32.6684 38.9175 32.5388C38.9429 32.4092 39.0319 32.2796 39.1336 32.258C39.2734 32.2148 39.2988 32.2796 39.2352 32.528C39.1971 32.7116 39.2225 32.906 39.2988 32.9708C39.4005 33.0572 39.4005 33.1328 39.2734 33.2624C39.1336 33.4028 39.0827 33.4028 39.0065 33.2948C38.9302 33.2084 38.8921 33.3056 38.8921 33.5648C38.8921 33.8563 38.9429 33.9535 39.0573 33.9103C39.1336 33.8671 39.1082 33.9103 38.9938 33.9967C38.854 34.0831 38.8031 34.2235 38.854 34.3747C38.9175 34.6015 38.7777 34.6879 38.587 34.5367C38.4091 34.3855 38.1168 34.4179 37.9897 34.6231C37.9261 34.7419 37.799 34.8067 37.7355 34.7635C37.6592 34.7203 37.6847 34.6231 37.8245 34.4935C38.0278 34.3099 38.0278 34.2883 37.8372 34.2883C37.6974 34.2883 37.6211 34.2019 37.6211 34.0291C37.6211 33.6512 37.8499 33.5756 38.0024 33.8995C38.0659 34.0507 38.2312 34.2235 38.371 34.2775C38.7396 34.4503 38.7904 34.4287 38.6125 34.1803C38.5235 34.0615 38.371 33.9859 38.2947 34.0183C38.2058 34.0399 38.1295 33.9967 38.1295 33.9103C38.1295 33.8348 38.0278 33.6188 37.9134 33.4352C37.7228 33.1652 37.7101 33.068 37.8372 32.8952C37.9134 32.7872 37.9516 32.5928 37.9134 32.474C37.888 32.3552 37.9134 32.1608 37.9897 32.042C38.0787 31.8908 38.0787 31.7504 37.9643 31.5452C37.8753 31.394 37.7863 31.2644 37.7482 31.2644C37.7101 31.2644 37.6847 31.61 37.6719 32.0204C37.6719 32.4308 37.6211 32.8088 37.5703 32.852C37.3034 33.0896 37.0237 31.9016 37.2144 31.3508C37.2906 31.1564 37.3796 30.8648 37.4177 30.692C37.4686 30.53 37.5448 30.4004 37.6084 30.4004C37.6719 30.4004 37.6974 30.4868 37.6719 30.584C37.6338 30.692 37.7355 30.9188 37.8753 31.1024C38.0151 31.2752 38.1295 31.3724 38.1295 31.3184C38.1295 31.2536 38.0532 31.1024 37.9516 30.9836C37.799 30.8 37.7863 30.692 37.9261 30.368C38.1422 29.828 38.1676 29.8172 38.4091 30.3032C38.5998 30.6812 38.5998 30.746 38.4345 30.8864C38.3201 30.9728 38.2947 31.0484 38.371 31.0484C38.5998 31.0484 38.8794 30.5948 38.9683 30.0764C39.07 29.5256 38.9175 29.5472 38.7777 30.098L38.676 30.4544L38.4727 30.0332C38.3583 29.8064 38.2947 29.5796 38.3329 29.5256C38.371 29.4716 38.3074 29.4284 38.193 29.4284C38.0787 29.4284 38.0024 29.4932 38.0151 29.558C38.0532 29.774 37.8626 30.2924 37.7355 30.2924C37.6719 30.2924 37.5957 30.1736 37.5448 30.0224C37.5067 29.8712 37.4177 29.7524 37.3542 29.7524C37.2906 29.7524 37.2906 29.8604 37.3542 30.0008C37.4305 30.152 37.4305 30.3248 37.3542 30.4112C37.2906 30.4976 37.2398 30.7028 37.2398 30.8648C37.2398 31.07 37.189 31.1456 37.0873 31.0916C36.9983 31.0484 36.9856 31.0592 37.0364 31.1348C37.0873 31.2104 37.0873 31.2644 37.0237 31.2644C36.9729 31.2644 36.9348 30.7676 36.9348 30.1628C36.9475 29.5472 36.9348 29.234 36.8966 29.4608C36.8712 29.6876 36.7568 29.9036 36.6679 29.936C36.5153 29.9792 36.5153 30.044 36.6679 30.368C36.7695 30.584 36.8585 30.7784 36.8585 30.8C36.8585 30.9404 36.4518 30.5516 36.1976 30.1736C36.0451 29.9468 35.8799 29.7848 35.829 29.8172C35.7273 29.8604 36.2866 30.692 36.5026 30.8324C36.5408 30.8648 36.6297 31.0268 36.6679 31.1888C36.7314 31.394 36.8204 31.4696 36.9348 31.4372C37.0873 31.394 37.0873 31.4264 36.9856 31.5884C36.8839 31.7504 36.9093 31.9556 37.0873 32.3984C37.2144 32.7224 37.2779 32.9924 37.2271 32.9924C37.1763 32.9924 37.1127 32.9276 37.0746 32.852C37.0492 32.7872 37.0237 32.8628 37.0237 33.0464C37.011 33.2192 37.0746 33.4244 37.1381 33.5C37.2525 33.6188 37.189 34.3099 37.0364 34.5151C36.8839 34.7311 36.7695 34.5907 36.8204 34.2343C36.8458 33.9643 36.8204 33.8563 36.6806 33.8563C36.5408 33.8563 36.5281 33.7592 36.6297 33.338C36.706 33.0572 36.8204 32.7656 36.8839 32.7008C36.9729 32.6036 36.9729 32.5604 36.8712 32.5604C36.7822 32.5604 36.7568 32.5064 36.795 32.4416C36.8585 32.3768 36.795 32.3768 36.6424 32.4524C36.4645 32.5496 36.2739 32.5496 35.7782 32.4308C35.1681 32.2796 35.1554 32.258 34.7487 31.448C34.5199 30.9836 34.3801 30.5948 34.4309 30.5624C34.4945 30.5408 34.7105 30.7244 34.9266 30.9728C35.5748 31.7288 36.4772 32.5172 36.4772 32.3336C36.4772 32.2472 36.312 32.0312 36.0959 31.8584C35.8799 31.6856 35.7146 31.4372 35.7146 31.286C35.7146 30.8972 35.9815 31.0484 36.401 31.6748C36.617 31.9772 36.8077 32.204 36.8458 32.1824C36.9602 32.0744 35.8671 30.5084 35.6765 30.5084C35.6129 30.5084 35.6129 30.5516 35.6511 30.6164C35.6892 30.6704 35.6257 30.7244 35.4986 30.7352C35.3715 30.7352 35.3333 30.7676 35.435 30.8C35.6002 30.854 35.6511 31.2644 35.4858 31.2644C35.2698 31.2644 35.0791 30.9944 35.0791 30.692C35.0791 30.4328 35.041 30.4004 34.8249 30.4544C34.6851 30.4976 34.5707 30.476 34.5707 30.4112C34.5707 30.3464 34.4564 30.2924 34.3165 30.2924C34.0751 30.2924 34.0623 30.314 34.253 30.6812C34.3547 30.8972 34.4436 31.1132 34.4436 31.1564C34.4436 31.3076 33.6811 31.1888 33.4269 30.9944C33.287 30.8864 33.1727 30.8432 33.1727 30.908C33.1727 30.962 33.3252 31.124 33.5031 31.2752C33.6811 31.4156 33.948 31.664 34.0751 31.826L34.3165 32.1068L33.8844 31.9988C33.6175 31.9232 33.4777 31.826 33.5158 31.7504C33.5412 31.6748 33.5158 31.5776 33.4396 31.5344C33.3506 31.502 33.2998 31.556 33.2998 31.6856C33.2998 31.8368 33.2362 31.8908 33.1091 31.8476C33.0074 31.8044 32.9185 31.826 32.9185 31.88C32.9185 31.934 33.3633 32.0636 33.9098 32.1716C34.4436 32.2796 34.952 32.3984 35.0156 32.4308C35.1681 32.5172 35.2444 32.528 35.6257 32.5496C35.8417 32.5604 35.918 32.6252 35.9053 32.7764C35.8799 33.0896 35.7528 33.1436 35.6511 32.8844C35.6002 32.7332 35.4986 32.6792 35.3715 32.7116C35.2698 32.744 35.0283 32.7008 34.8122 32.6144C34.6089 32.5172 34.4436 32.4848 34.4436 32.5388C34.4436 32.6576 35.0156 32.8844 35.3206 32.8844C35.4604 32.8844 35.5875 32.96 35.6384 33.0464C35.7019 33.1868 35.5748 33.2516 35.3206 33.23C35.2698 33.2192 35.2571 33.3164 35.2952 33.4244C35.346 33.5972 35.3206 33.6296 35.1427 33.5756C35.0156 33.5324 34.952 33.4244 34.9902 33.2948C35.041 33.1328 35.0283 33.1112 34.8885 33.2084C34.7614 33.2948 34.6216 33.2408 34.3165 32.9816C33.9352 32.6576 33.9098 32.6468 33.9607 32.8844C33.9861 33.0248 34.164 33.2084 34.3801 33.3056C35.2189 33.6836 35.3842 33.8348 35.2062 34.0183C35.0664 34.1587 35.0918 34.2235 35.3333 34.4503C35.4858 34.5907 35.5748 34.7527 35.524 34.8175C35.4858 34.8823 35.5113 34.9363 35.5748 34.9363C35.6511 34.9363 35.7146 35.0119 35.7146 35.0983C35.7146 35.1847 35.7655 35.2603 35.8417 35.2603C35.9053 35.2603 35.9307 35.1847 35.8926 35.0983C35.8417 35.0119 35.8671 34.9363 35.9434 34.9363C36.1976 34.9363 36.2103 35.2603 35.9561 35.3791C35.6511 35.5087 35.5748 35.4655 35.3587 35.0119L35.2062 34.6663L35.2444 35.0227C35.2825 35.2927 35.2317 35.4115 35.0283 35.4979C34.7868 35.6059 34.7741 35.6059 34.9393 35.4331C35.0918 35.2819 35.0918 35.2279 34.952 35.1199C34.8249 35.0227 34.8122 35.0227 34.8885 35.1307C34.9393 35.2171 34.8885 35.3359 34.7487 35.4223C34.3674 35.6707 34.7741 35.8327 35.1935 35.6059C35.4858 35.4331 35.5113 35.4331 35.435 35.6059C35.3842 35.7031 35.4223 35.8435 35.5367 35.9083C35.7019 36.0271 35.7909 36.3403 35.6638 36.3403C35.4223 36.3403 35.2062 36.1675 35.1935 35.9731C35.1935 35.7463 35.1935 35.7463 35.0791 35.9947C35.0156 36.1243 34.9012 36.2323 34.8249 36.2323C34.647 36.2323 34.6597 36.0487 34.8631 35.9839C34.9393 35.9515 34.8885 35.9191 34.7233 35.9191C34.558 35.9083 34.4691 35.9515 34.5072 36.0163C34.5453 36.0703 34.5326 36.1243 34.4564 36.1243C34.3928 36.1243 34.2911 35.9731 34.253 35.7787C34.1767 35.4979 34.2149 35.4007 34.4436 35.2387C34.6089 35.1307 34.6851 35.0011 34.6343 34.9579C34.5835 34.9147 34.5072 34.9471 34.4818 35.0119C34.4436 35.0875 34.3674 35.1523 34.3038 35.1523C34.1259 35.1523 34.164 34.8499 34.3547 34.7959C34.4691 34.7527 34.4691 34.7311 34.3547 34.7311C34.2657 34.7203 34.1259 34.8499 34.0242 35.0227C33.859 35.3143 33.7954 35.3359 33.4269 35.2171C33.287 35.1631 33.2362 35.2387 33.2108 35.5411C33.1854 35.9947 33.0837 36.1243 32.9185 35.9191C32.8676 35.8327 32.8676 35.6491 32.9312 35.5087C33.0074 35.3359 32.9947 35.2711 32.9185 35.3143C32.8422 35.3467 32.7914 35.3359 32.7914 35.2819C32.7914 35.2171 32.8803 35.1523 32.982 35.1091C33.0837 35.0767 33.1727 34.9903 33.1727 34.9147C33.1727 34.7959 33.1472 34.7959 33.071 34.9147C32.9185 35.1199 32.4101 35.1739 32.499 34.9795C32.5372 34.8931 32.499 34.8283 32.4228 34.8283C32.3465 34.8283 32.2957 34.8607 32.2957 34.9039C32.3592 35.2387 32.2448 35.2603 32.0161 34.9471C31.7746 34.6123 31.7746 34.5691 31.9652 34.3315C32.0796 34.1803 32.1305 34.0183 32.0796 33.9535C31.9779 33.8024 32.1305 33.3164 32.283 33.3164C32.4609 33.3164 32.4355 33.6728 32.2575 33.8456C32.1305 33.9643 32.1305 33.9859 32.2575 33.9211C32.3719 33.8671 32.4101 33.9535 32.4101 34.2559C32.4101 34.5259 32.4482 34.6123 32.5245 34.5151C32.6643 34.3207 32.8168 34.5259 32.7151 34.7959C32.6643 34.9255 32.7024 34.9147 32.8168 34.7527C32.9693 34.5259 33.0201 34.5151 33.2616 34.6663C33.4014 34.7527 33.554 34.7851 33.6048 34.7527C33.6429 34.7203 33.6811 34.7419 33.6811 34.8067C33.6811 34.8823 33.5794 34.9363 33.465 34.9363C33.2743 34.9363 33.2616 34.9579 33.4269 35.0443C33.6683 35.1739 33.9734 34.8715 33.859 34.5907C33.8209 34.4827 33.8463 34.3963 33.9225 34.3963C33.9988 34.3963 34.0623 34.4395 34.0623 34.5043C34.0623 34.5583 34.164 34.6123 34.2784 34.6123C34.4691 34.6123 34.4564 34.5907 34.2403 34.4503C34.0369 34.3099 34.0369 34.2991 34.2276 34.3531C34.3928 34.4071 34.4309 34.3747 34.3547 34.2235C34.3038 34.0939 34.3165 34.0615 34.4182 34.1155C34.5199 34.1695 34.5453 34.1371 34.4945 34.0291C34.3547 33.716 34.5453 33.8456 34.7487 34.2019C34.9775 34.5907 34.9902 34.6447 34.8376 34.5691C34.7741 34.5367 34.6978 34.5799 34.6597 34.6663C34.5962 34.7959 34.6343 34.7959 34.9012 34.6987C35.1681 34.5907 35.1808 34.5583 35.0283 34.4071C34.9393 34.3099 34.8885 34.1695 34.9139 34.0939C34.952 34.0291 34.9012 33.9643 34.8249 33.9643C34.736 33.9643 34.6978 33.8995 34.736 33.8132C34.7868 33.7052 34.736 33.6836 34.5326 33.7268C34.3801 33.7592 34.2911 33.7376 34.342 33.6944C34.4691 33.5864 34.2022 33.2948 34.0496 33.3812C33.8463 33.4784 33.1727 32.852 33.2489 32.6468C33.287 32.5388 33.2616 32.4524 33.1981 32.4524C33.1218 32.4524 33.0456 32.5172 33.0074 32.582C32.9058 32.852 32.5372 32.4416 32.5372 32.0528C32.5372 31.826 32.4863 31.7072 32.4101 31.7504C32.3338 31.7936 32.3084 31.8584 32.3465 31.9124C32.3846 31.9664 32.3592 32.0312 32.2957 32.0744C32.2194 32.1068 32.105 32.0312 32.0288 31.9124C31.9525 31.7936 31.8381 31.718 31.7619 31.7612C31.6983 31.7936 31.889 32.0096 32.1813 32.2364C32.4863 32.4632 32.6897 32.6792 32.6388 32.7224C32.588 32.7656 32.4736 32.7548 32.3846 32.7116C31.9652 32.4848 31.711 32.5928 31.7619 32.9708C31.7746 33.0572 31.6729 33.1436 31.5331 33.176C31.3806 33.2084 31.2662 33.2732 31.2662 33.3272C31.2662 33.4676 31.4823 33.446 31.5966 33.3056C31.7746 33.0572 31.9398 33.4028 31.8381 33.824C31.7746 34.0507 31.7364 34.2667 31.7492 34.3099C31.7619 34.3639 31.6856 34.3963 31.5839 34.3963C31.4823 34.3963 31.3933 34.3315 31.3933 34.2451C31.3933 34.1695 31.3043 34.0291 31.1899 33.9535C31.0247 33.8456 30.9993 33.6944 31.0501 33.2948C31.101 32.9924 31.0755 32.7764 31.012 32.7764C30.9357 32.7764 30.8849 32.9384 30.8849 33.122C30.8722 33.4568 30.8722 33.4676 30.6815 33.2624C30.5799 33.1436 30.529 32.9924 30.5544 32.9168C30.5926 32.8412 30.5671 32.7764 30.4909 32.7764C30.4146 32.7764 30.3638 32.8844 30.3765 33.014C30.4146 33.4244 30.3892 33.5432 30.2494 33.4784C30.1731 33.4352 30.1477 33.3164 30.1858 33.1976C30.2367 33.0788 30.2113 32.9924 30.1223 32.9924C30.046 32.9924 30.0079 33.0356 30.0588 33.0896C30.0969 33.1436 30.0715 33.2192 29.9952 33.2624C29.9317 33.2948 30.0206 33.446 30.224 33.5864C30.4146 33.7376 30.4909 33.8563 30.4019 33.8563C30.2875 33.8563 30.2875 33.9103 30.3765 34.0399C30.4528 34.1479 30.618 34.4719 30.7451 34.7743C30.9993 35.3575 31.2535 35.4655 31.4568 35.0659C31.5204 34.9363 31.6094 34.8283 31.6475 34.8283C31.6856 34.8283 31.8635 35.0119 32.0542 35.2387C32.3592 35.6167 32.3719 35.6491 32.1432 35.6599C32.0161 35.6707 31.9144 35.6167 31.9398 35.5519C31.9525 35.4763 31.8635 35.4223 31.7492 35.4223C31.3297 35.4223 31.495 35.6383 31.9906 35.7463C32.4609 35.8543 32.7151 36.1243 32.3465 36.1243C32.2448 36.1243 32.1559 36.1675 32.1559 36.2323C32.1559 36.2971 32.0288 36.2863 31.8381 36.2107C31.6475 36.1351 31.5331 36.0271 31.5712 35.9407C31.6602 35.7679 31.1899 35.7463 31.0628 35.9299C31.012 35.9947 31.0247 36.0163 31.1137 35.9731C31.1899 35.9407 31.3297 35.9947 31.4187 36.1135C31.5077 36.2215 31.6983 36.3295 31.8254 36.3511C31.9779 36.3835 32.0796 36.4915 32.0923 36.6643C32.105 36.8155 32.1686 37.0207 32.2194 37.1395C32.3084 37.3123 32.2957 37.3231 32.0542 37.2151C31.9144 37.1503 31.7619 36.9559 31.711 36.7831C31.6475 36.5131 31.1391 35.9623 31.1391 36.1675C31.1391 36.3835 31.8127 37.3123 31.9652 37.3123C32.0669 37.3123 32.1559 37.3663 32.1559 37.4311C32.1559 37.5715 31.6602 37.4527 31.3679 37.2259C31.2408 37.1395 31.1391 36.9991 31.1391 36.9127C31.1391 36.8263 31.0755 36.7939 30.9993 36.8371C30.8976 36.8803 30.8849 36.8263 30.9357 36.6535C30.9739 36.5131 30.9739 36.4591 30.9357 36.5347C30.8722 36.6427 30.7832 36.6211 30.5544 36.4375C30.1858 36.1351 30.135 35.6275 30.4909 35.6275C30.6434 35.6275 30.707 35.6923 30.6561 35.8219C30.6307 35.9299 30.6688 36.0163 30.7578 36.0163C30.8468 36.0163 30.8849 35.9407 30.834 35.8435C30.7959 35.7571 30.8086 35.7031 30.8722 35.7355C30.9357 35.7679 31.0501 35.7247 31.1391 35.6383C31.2408 35.5411 31.2408 35.4763 31.1645 35.4763C31.0882 35.4763 31.012 35.5411 30.9739 35.6059C30.9357 35.6923 30.8849 35.6707 30.8213 35.5303C30.7705 35.4115 30.5671 35.0119 30.3765 34.6447C30.1731 34.2775 30.0333 33.9643 30.0715 33.9427C30.0969 33.9211 29.9444 33.8132 29.741 33.7052C29.5249 33.608 29.3597 33.5756 29.3597 33.6296C29.3597 33.6944 29.4233 33.7484 29.4868 33.7484C29.5631 33.7484 29.6139 33.8024 29.6139 33.8671C29.6139 33.9319 29.4995 33.9643 29.3597 33.9319C28.9403 33.8348 29.0674 34.0183 29.6139 34.2775C29.8935 34.4071 30.2113 34.6555 30.3129 34.8283C30.5544 35.2279 30.5544 35.2387 30.1986 35.2063C29.8046 35.1631 29.5885 35.0551 29.6775 34.9471C29.7029 34.8931 29.652 34.7635 29.5504 34.6555C29.4487 34.5475 29.3597 34.5043 29.3597 34.5691C29.3597 34.6231 29.436 34.7419 29.5249 34.8175C29.652 34.9471 29.6266 34.9579 29.4233 34.8931C29.2453 34.8391 29.2835 34.9039 29.5504 35.0875C29.7664 35.2387 29.9952 35.3467 30.0842 35.3143C30.2367 35.2711 30.2113 35.6599 30.046 35.7895C29.9444 35.8759 28.9657 34.9363 29.042 34.8283C29.0801 34.7743 28.9403 34.6339 28.7369 34.5151C28.2667 34.2235 28.0506 34.2235 28.47 34.5043L28.7878 34.7203H28.3175C28.0379 34.7203 27.7583 34.6447 27.6312 34.5259C27.4151 34.3531 27.4024 34.3531 27.4914 34.5259C27.5295 34.6339 27.5168 34.7203 27.4532 34.7203C27.377 34.7203 27.3261 34.7635 27.3261 34.8067C27.3261 34.8607 27.4914 34.8823 27.682 34.8499C28.1141 34.7959 28.2794 34.9579 28.4065 35.5303L28.4954 35.9623L28.2158 35.7463C28.0633 35.6275 27.8854 35.4331 27.8218 35.3143C27.7329 35.1091 27.7201 35.1199 27.7201 35.3575C27.7074 35.5843 27.6566 35.6059 27.3261 35.5411C26.8686 35.4655 26.8305 35.5519 27.2626 35.6923C27.4914 35.7679 27.5803 35.8759 27.5803 36.0703C27.5803 36.3187 27.5549 36.3295 27.3261 36.2323C27.1863 36.1675 27.0719 36.0811 27.0719 36.0379C27.0592 35.9083 26.3093 35.2063 26.3093 35.3251C26.3093 35.5087 27.3261 36.4483 27.5168 36.4483C27.6947 36.4483 27.8345 36.6751 27.8345 36.9559C27.8345 37.0963 27.7964 37.0963 27.6439 36.9883C27.5422 36.9127 27.4914 36.8155 27.5295 36.7615C27.5676 36.7075 27.4787 36.6643 27.3516 36.6643C27.2117 36.6643 27.0719 36.5671 27.0338 36.4591C26.9703 36.2323 26.5508 35.9731 26.0552 35.8543C25.6103 35.7355 25.8645 35.9407 26.3475 36.0811C26.5763 36.1459 26.7542 36.2431 26.7669 36.2971C26.7923 36.5347 26.983 36.7723 27.1482 36.7723C27.2499 36.7723 27.3261 36.8155 27.3261 36.8803C27.3261 36.9343 27.2117 36.9883 27.0719 36.9883C26.9321 36.9883 26.8177 36.9343 26.8177 36.8803C26.8177 36.8155 26.6652 36.7723 26.4619 36.7723C26.2712 36.7723 25.9916 36.6967 25.8391 36.6103C25.6866 36.5239 25.534 36.4915 25.4959 36.5455C25.4578 36.5995 25.5468 36.6751 25.712 36.7183C25.9662 36.7939 25.9535 36.8047 25.5849 36.8479C25.3561 36.8695 25.1655 36.9451 25.1655 37.0099C25.1655 37.0747 25.3053 37.0855 25.5213 37.0423C26.1695 36.9019 26.6906 36.8803 26.6906 36.9883C26.6906 37.0423 26.894 37.0963 27.1355 37.0963C27.4532 37.0963 27.682 37.1827 27.9616 37.4203C28.1777 37.6039 28.4192 37.7443 28.5082 37.7443C28.6098 37.7443 28.6098 37.7767 28.4827 37.8415C28.3683 37.9063 28.3556 37.9603 28.4573 38.0035C28.5336 38.0467 28.5971 38.0143 28.5971 37.9387C28.5971 37.8307 28.6225 37.8307 28.6988 37.9279C28.864 38.1439 29.4614 38.2843 29.7664 38.1763C30.0206 38.0899 30.0079 38.0791 29.6139 38.0791C28.9911 38.0683 28.559 37.7983 28.6734 37.4959C28.7369 37.3015 28.7242 37.2799 28.5844 37.3879C28.4954 37.4635 28.3811 37.5283 28.3302 37.5283C28.1777 37.5283 27.9489 36.8479 28.076 36.7399C28.1777 36.6535 28.6607 36.7291 29.2962 36.9451C29.4995 37.0099 29.4995 36.9883 29.2453 36.8047L28.9403 36.5887L29.2962 36.5131C29.5631 36.4591 29.7537 36.5023 30.1096 36.6967C30.3638 36.8479 30.6942 36.9991 30.8595 37.0423C31.012 37.0747 31.1391 37.1611 31.1391 37.2259C31.1391 37.3987 30.2494 37.2151 30.0079 36.9991C29.8935 36.9019 29.8681 36.8911 29.9317 36.9775C30.0333 37.0963 30.0079 37.1179 29.8681 37.0747C29.7664 37.0423 29.5631 37.0639 29.4233 37.1071L29.1691 37.2043L29.4233 37.1935C30.0079 37.1611 30.1096 37.2043 30.0333 37.3879C29.9698 37.5499 29.9952 37.5607 30.1223 37.4527C30.2621 37.3447 30.4146 37.4095 30.9103 37.7659C31.2535 38.0035 31.5077 38.2195 31.4823 38.2411C31.3806 38.3383 30.8849 38.1331 30.8849 37.9927C30.8849 37.9063 30.8086 37.8523 30.7324 37.8847C30.6434 37.9063 30.4528 37.8523 30.3129 37.7551C30.0588 37.5823 30.0588 37.5823 30.3002 37.8199C30.4273 37.9603 30.6053 38.0359 30.6815 38.0035C30.7578 37.9711 30.707 38.0251 30.5671 38.1331C30.3129 38.3059 30.3129 38.3059 30.5926 38.2519C30.7578 38.2195 30.9357 38.2627 31.0247 38.3491C31.2662 38.5975 31.0755 38.6406 30.3892 38.4679C30.0206 38.3815 29.7029 38.3491 29.6647 38.4031C29.5631 38.5435 29.1055 38.5219 29.1055 38.3815C29.1055 38.3167 28.9911 38.2843 28.8513 38.3167C28.5209 38.3923 28.1523 38.1439 28.254 37.9171C28.3048 37.8199 28.2794 37.7443 28.2158 37.7443C28.1396 37.7443 28.0887 37.8631 28.0887 38.0143C28.0887 38.1655 28.1523 38.2843 28.2158 38.2843C28.4573 38.2843 28.3429 38.4787 28.0633 38.5543C27.4914 38.7054 27.1736 38.727 27.0084 38.6082C26.8813 38.5219 26.8559 38.5543 26.8559 38.7594C26.8559 39.0294 26.8559 39.0294 27.2753 38.8782C27.5549 38.781 27.7329 38.7702 27.7837 38.835C27.8218 38.8998 27.9235 38.8782 27.9998 38.781C28.254 38.5003 30.2494 38.5327 31.2026 38.8242C31.6221 38.9646 32.0034 39.0942 32.0415 39.1374C32.0923 39.1698 32.1559 39.483 32.2067 39.8178L32.283 40.4442H23.4369H14.5909L14.6544 40.1526C14.6799 39.9798 14.9213 39.1158 15.1628 38.2303C15.8873 35.6599 18.1751 27.4521 19.3062 23.3806C19.8782 21.3286 20.3739 19.5898 20.3993 19.5143C20.4374 19.4387 21.4288 19.9894 23.0302 20.983C24.4537 21.8578 27.3007 23.6182 29.3597 24.8817C31.4187 26.1561 33.2362 27.2901 33.4014 27.4089C33.6302 27.5925 33.6811 27.7437 33.6811 28.2297C33.6811 29.0828 33.7573 29.1476 34.4945 28.9317C35.0664 28.7589 35.1681 28.7697 35.8926 28.9317L36.6679 29.1152L36.8585 28.8777C36.9602 28.7373 37.4177 28.2405 37.8626 27.7545C38.3074 27.2793 38.7141 26.7933 38.765 26.6745C38.8667 26.4693 39.159 9.41646 39.1463 4.08138C39.1463 2.45061 39.1971 1.44623 39.2734 1.40303C39.3496 1.35983 39.4005 1.54343 39.4005 1.86742C39.4005 2.15902 39.4513 3.87618 39.5276 5.67974C39.5911 7.4833 39.7436 11.49 39.8453 14.5788C40.1758 23.9638 40.2647 26.1021 40.341 26.1669C40.3791 26.1993 40.4554 26.1885 40.4935 26.1561C40.5444 26.1129 40.5189 24.3202 40.43 22.171C40.3537 20.011 40.2012 15.8207 40.0995 12.8508C39.9978 9.88085 39.8453 5.98214 39.7818 4.17857C39.7055 2.37501 39.6801 0.863045 39.7182 0.798244C39.8707 0.593048 40.1631 0.701046 40.1631 0.960239C40.1631 1.11144 40.2139 1.82422 40.2902 2.55861C40.3537 3.29299 40.4935 4.95616 40.6079 6.26293C40.9384 10.2588 41.1799 13.0776 41.3705 15.3347C41.4722 16.5227 41.6374 18.5855 41.7518 19.9246C41.8662 21.2638 42.0314 23.2726 42.1331 24.4065C42.2348 25.5297 42.3492 27.0309 42.4 27.7221C42.4635 28.7373 42.5271 28.9965 42.6669 28.9965C42.8194 28.9965 42.8448 28.8777 42.7813 28.3701C42.7432 28.0353 42.6796 27.3657 42.6415 26.8905C42.6161 26.4153 42.5017 25.0329 42.3873 23.8126C42.2856 22.5922 42.1077 20.5294 42.006 19.2227C41.8916 17.9159 41.7264 15.8747 41.6247 14.6868C41.2434 10.1508 41.0528 7.91529 40.8621 5.61494C40.7604 4.30817 40.6079 2.6342 40.5444 1.91062C40.4681 1.17624 40.4427 0.528252 40.4935 0.474251C40.6333 0.279854 40.9129 0.387852 40.9765 0.668648ZM21.2381 19.4711C21.683 19.7626 24.6952 21.631 27.9362 23.6398C31.1772 25.6485 33.7954 27.3225 33.7573 27.3441C33.7192 27.3765 30.7197 25.5621 27.0719 23.3158C23.4369 21.0586 20.3866 19.2227 20.2849 19.2335C20.1705 19.2443 15.3026 22.279 12.7225 23.9638C12.5827 24.0502 12.5573 24.0502 12.6209 23.9638C12.6717 23.8882 14.1842 22.873 15.9763 21.7066C17.7811 20.5294 19.4588 19.4387 19.7002 19.2659C19.9417 19.1039 20.2086 18.9635 20.2849 18.9635C20.3611 18.9527 20.7933 19.1903 21.2381 19.4711ZM19.4333 21.8794C19.0775 23.1538 18.5309 25.0869 18.2259 26.1885C17.9209 27.2901 17.4125 29.1044 17.0947 30.2384C16.777 31.3616 16.0144 34.1155 15.3916 36.3403L14.2731 40.3902L13.1038 40.4226C12.4683 40.4334 11.9472 40.4118 11.9472 40.3686C11.9472 40.3254 12.2014 39.5586 12.5065 38.6622C12.8242 37.7767 13.053 37.0315 13.0276 37.0099C13.0022 36.9883 12.4811 37.0747 11.8583 37.1935C11.2482 37.3231 9.71031 37.6255 8.45204 37.8847L6.16427 38.3491L5.66858 39.3966L5.1729 40.4442H4.43573C4.01631 40.4442 3.68585 40.401 3.68585 40.3578C3.68585 40.3038 3.80024 39.9798 3.94005 39.6234C4.28321 38.7918 4.23237 38.7054 3.53333 38.8458C2.847 38.9862 2.77074 39.051 2.41487 39.8178L2.10983 40.4442H1.30911C0.864268 40.4442 0.508393 40.4226 0.508393 40.401C0.508393 40.3794 1.2964 38.7918 2.26235 36.8803L4.0036 33.4028L5.19832 32.9384L6.39304 32.474L7.02854 31.1672L7.65132 29.8604L8.69352 29.2772L9.73573 28.7049L10.206 27.6249C10.4602 27.0309 10.6763 26.5125 10.6763 26.4801C10.6763 26.2749 10.1806 26.5233 8.38849 27.6465C7.30815 28.3269 6.40575 28.8561 6.36763 28.8345C6.34221 28.8021 6.41846 28.5861 6.54556 28.3377C6.74892 27.9597 7.39712 27.5169 11.1847 25.1085C18.0861 20.7238 20.018 19.5143 20.0434 19.5359C20.0688 19.5574 19.7892 20.605 19.4333 21.8794ZM12.4556 24.0718C12.4556 24.0934 12.354 24.1798 12.2396 24.2554C12.0362 24.3957 12.0235 24.3849 12.1887 24.2122C12.354 24.0394 12.4556 23.9854 12.4556 24.0718ZM10.1424 27.0309C10.1297 27.0741 9.96451 27.4305 9.79928 27.8193C9.49424 28.5213 9.4434 28.5537 8.46475 29.0936L7.43525 29.6552L6.79976 30.9512L6.17698 32.258L5.4271 32.582C5.00767 32.7548 4.63909 32.8736 4.60096 32.8412C4.56283 32.8088 4.93141 31.988 5.4271 31.0268L6.31679 29.2664L8.147 28.1109C9.85012 27.0417 10.2568 26.8257 10.1424 27.0309ZM39.6165 30.206C39.5784 30.2924 39.5403 30.26 39.5403 30.1412C39.5276 30.0224 39.5657 29.9576 39.6038 30.0008C39.642 30.0332 39.6547 30.1304 39.6165 30.206ZM40.824 30.962C40.8494 31.1132 40.6969 31.4156 40.4046 31.7504C40.1504 32.042 39.9216 32.366 39.8707 32.4524C39.8199 32.5604 39.7945 32.5388 39.7945 32.3768C39.7691 31.9664 40.1758 31.394 40.5317 31.3076C40.7858 31.2428 40.8113 31.2212 40.646 31.1888C40.3918 31.1348 40.3918 31.1348 40.4935 30.8972C40.6079 30.6488 40.7731 30.6812 40.824 30.962ZM34.3165 31.448C34.6343 31.5992 34.9266 32.0744 34.7868 32.1932C34.7233 32.2472 33.8082 31.4696 33.8082 31.3508C33.8082 31.2212 33.9098 31.2428 34.3165 31.448ZM39.7691 31.8476C39.6674 31.9124 39.5911 32.15 39.5911 32.366C39.5911 32.5928 39.5403 32.7764 39.4767 32.7764C39.3369 32.7764 39.3242 32.1608 39.4513 31.9016C39.5022 31.8044 39.6293 31.7288 39.7436 31.7288C39.9089 31.7288 39.9089 31.7504 39.7691 31.8476ZM42.4 32.9492C42.2856 33.2192 42.1585 33.3596 42.0314 33.338C41.9297 33.3272 41.8026 33.4028 41.7645 33.5108C41.6882 33.7052 41.0146 34.2883 40.8621 34.2883C40.7096 34.2883 40.824 33.9535 41.0019 33.8887C41.1036 33.8563 41.1671 33.7592 41.129 33.6836C41.0273 33.446 41.1799 33.2084 41.4468 33.2084C41.8026 33.2084 41.7391 33.0464 41.3832 33.014C41.1544 33.0032 41.0528 33.0572 41.0146 33.2408C40.9638 33.4568 40.9638 33.4568 40.9384 33.1976C40.9257 32.8304 41.3832 32.474 41.9424 32.4308C42.5525 32.3768 42.6161 32.4524 42.4 32.9492ZM36.5789 33.0248C36.401 33.446 36.2993 33.4568 36.1468 33.0464C36.0197 32.69 36.0197 32.6792 36.3501 32.7008C36.6679 32.7224 36.6806 32.744 36.5789 33.0248ZM32.2194 32.96C32.1559 33.122 32.1686 33.1328 32.2957 33.014C32.5117 32.8412 32.6897 32.852 32.6388 33.0356C32.6134 33.122 32.6516 33.1868 32.7278 33.176C32.7914 33.1652 32.8422 33.0572 32.8295 32.9384C32.8168 32.7872 32.8295 32.7764 32.8676 32.8952C32.9058 33.0032 33.0583 33.1112 33.2108 33.1436C33.4904 33.2084 33.4777 33.2084 33.1218 33.4568C32.893 33.6188 32.8041 33.7376 32.8803 33.7808C33.071 33.8779 32.9312 34.2883 32.7151 34.2883C32.499 34.2883 32.4863 34.0507 32.677 33.8887C32.7659 33.8132 32.7659 33.7484 32.677 33.7052C32.6134 33.662 32.5753 33.5648 32.6261 33.4784C32.6643 33.392 32.6261 33.3164 32.5372 33.3164C32.4482 33.3164 32.4101 33.2408 32.4609 33.1436C32.5117 33.0356 32.4863 33.0032 32.3719 33.068C32.0923 33.2192 31.9271 33.1868 31.8635 32.9816C31.8127 32.8304 31.8635 32.7764 32.0542 32.7764C32.2448 32.7764 32.283 32.8196 32.2194 32.96ZM39.9216 33.068C39.9851 33.716 39.9724 33.8348 39.8834 33.7916C39.8326 33.7592 39.7818 33.7592 39.7818 33.7808C39.7818 33.8132 39.6928 34.0183 39.5784 34.2451C39.3878 34.6231 39.3878 34.6447 39.5784 34.5151C39.7564 34.3855 39.7818 34.4071 39.7818 34.6123C39.7818 34.7743 39.7182 34.8283 39.6038 34.7959C39.5149 34.7635 39.3623 34.7959 39.2861 34.8607C39.1844 34.9471 39.1463 34.9363 39.1463 34.8175C39.1463 34.6879 39.1209 34.6879 39.0192 34.8283C38.9302 34.9471 38.8921 34.9579 38.8921 34.8499C38.8921 34.7743 38.9811 34.6231 39.0954 34.5367C39.2225 34.4287 39.2734 34.2235 39.2607 33.9751C39.2352 33.7376 39.3115 33.4568 39.464 33.2408C39.7436 32.8412 39.8962 32.7872 39.9216 33.068ZM37.583 33.2084C37.5448 33.3164 37.583 33.4352 37.6719 33.4676C37.7482 33.4892 37.6847 33.5216 37.5194 33.5216C37.3542 33.5324 37.2525 33.5 37.2779 33.446C37.3034 33.4028 37.3669 33.284 37.405 33.176C37.5194 32.9276 37.6719 32.9384 37.583 33.2084ZM36.0324 33.2084C35.918 33.3596 36.2103 33.662 36.3882 33.5648C36.4645 33.5324 36.4772 33.554 36.4264 33.6296C36.312 33.77 36.4518 34.2019 36.5916 34.1371C36.6424 34.1047 36.6933 34.1803 36.6933 34.2991C36.706 34.4071 36.6679 34.5043 36.617 34.5043C36.5662 34.5043 36.4137 34.5799 36.2739 34.6663C36.0451 34.8175 36.0451 34.8283 36.2739 34.7527C36.4391 34.7095 36.4899 34.7311 36.4518 34.8391C36.4137 34.9255 36.4645 35.0551 36.5662 35.1307C36.6552 35.2171 36.706 35.3251 36.6679 35.3791C36.617 35.4331 36.6424 35.4763 36.7187 35.4763C36.7822 35.4763 36.8839 35.4223 36.9221 35.3683C37.0619 35.1739 37.189 35.2603 37.1763 35.5519C37.1763 35.7031 37.2525 35.8543 37.3415 35.8867C37.4813 35.9191 37.494 35.8867 37.3669 35.6923C37.2779 35.5519 37.2652 35.4763 37.3415 35.5195C37.4177 35.5519 37.5067 35.5411 37.5448 35.4871C37.583 35.4331 37.5321 35.3683 37.4305 35.3251C37.189 35.2495 37.1763 34.7203 37.405 34.7203C37.5067 34.7203 37.583 34.7851 37.583 34.8607C37.583 34.9363 37.6211 35.1307 37.6719 35.2927C37.7228 35.4655 37.6974 35.5843 37.6211 35.5843C37.5575 35.5843 37.494 35.6383 37.494 35.7031C37.494 35.7571 37.5575 35.7787 37.6465 35.7355C37.7482 35.6815 37.7609 35.7139 37.7101 35.8327C37.6719 35.9299 37.6847 36.0379 37.7482 36.0703C37.8245 36.1135 37.8753 36.0379 37.8753 35.9191C37.8753 35.7895 37.9643 35.6923 38.0659 35.6923C38.2312 35.6923 38.2439 35.7355 38.1295 35.9083C38.0532 36.0271 38.0405 36.1243 38.1041 36.1243C38.2439 36.1243 38.371 35.7571 38.3964 35.3143C38.3964 35.1307 38.4472 34.8931 38.4981 34.7743C38.5998 34.5691 38.5998 34.5691 38.7523 34.8067C38.9556 35.1199 38.6125 36.2323 38.3201 36.2323C38.2185 36.2323 38.1295 36.3187 38.1295 36.4159C38.1295 36.5671 38.1803 36.5455 38.4472 36.3403C38.6252 36.1999 38.765 36.1351 38.765 36.1891C38.765 36.2431 38.8285 36.1999 38.9048 36.0919C38.9683 35.9947 38.9938 35.8543 38.9429 35.7787C38.8921 35.7139 38.9048 35.6923 38.9938 35.7355C39.07 35.7679 39.2225 35.6923 39.3242 35.5627C39.5657 35.2711 39.5784 35.3359 39.3878 35.9731C39.2861 36.3187 39.2098 36.4159 39.1336 36.3187C39.0446 36.2107 39.0192 36.1999 39.0192 36.3187C39.0192 36.3943 38.9683 36.4375 38.9048 36.4051C38.8412 36.3727 38.765 36.4159 38.7141 36.5023C38.676 36.5887 38.5362 36.6643 38.3964 36.6643C38.1549 36.6643 37.9516 36.9343 38.0659 37.0963C38.1041 37.1503 38.0787 37.2151 38.0024 37.2583C37.9388 37.2907 37.8753 37.2475 37.8753 37.1611C37.8753 37.0747 37.8245 36.9775 37.7609 36.9451C37.7101 36.9127 37.6847 36.9991 37.7101 37.1395C37.7482 37.2799 37.888 37.4311 38.0278 37.4527C38.2439 37.5067 38.2693 37.4743 38.2185 37.2475C38.1676 36.9991 38.4345 36.6751 38.587 36.8047C38.6379 36.8371 38.7777 36.7615 38.9175 36.6319L39.159 36.3943L39.1082 36.7723C39.07 36.9775 38.9938 37.2475 38.9429 37.3555C38.8794 37.4851 38.8921 37.5391 38.9811 37.4959C39.0573 37.4527 39.1463 37.2691 39.1971 37.0855C39.2352 36.8911 39.3115 36.7723 39.3623 36.8155C39.4894 36.9235 39.5022 37.3123 39.3751 37.3123C39.3242 37.3123 39.2734 37.3771 39.2734 37.4635C39.2734 37.5499 39.1971 37.6363 39.0954 37.6687C38.9048 37.7335 38.7777 37.5499 38.7523 37.1719C38.7396 36.9991 38.7141 37.0207 38.6506 37.2583C38.5743 37.5283 38.5108 37.5823 38.2185 37.5607C38.0278 37.5499 37.8753 37.5823 37.8753 37.6471C37.8753 37.7011 37.9388 37.7443 38.0151 37.7443C38.0787 37.7443 38.1041 37.7983 38.0532 37.8631C38.0151 37.9279 38.1295 37.8955 38.3074 37.7983C38.7904 37.5283 38.9683 37.7011 38.7904 38.2735C38.7014 38.5867 38.7014 38.7378 38.8031 38.7918C38.8794 38.835 38.8921 38.8026 38.8285 38.7162C38.765 38.619 38.7777 38.5975 38.8794 38.6514C39.07 38.7486 38.8285 39.051 38.5998 39.0078C38.5108 38.997 38.4599 39.0726 38.4854 39.1914C38.5235 39.3534 38.4981 39.3642 38.3456 39.2454C38.2439 39.159 38.1676 39.051 38.193 38.9862C38.2058 38.9322 38.193 38.9106 38.1676 38.9646C38.1295 39.0078 37.8499 38.889 37.5448 38.6946C37.189 38.4787 37.0364 38.3275 37.1254 38.2735C37.2144 38.2303 37.3923 38.2951 37.5321 38.4031C37.799 38.619 37.9134 38.6514 38.0278 38.5543C38.0659 38.5219 37.9007 38.1655 37.6847 37.7659C37.2906 37.0747 37.2525 36.8155 37.4432 36.2539C37.5194 36.0379 37.4813 36.0163 37.0746 36.0163C36.8204 36.0163 36.5662 36.0811 36.5153 36.1675C36.3882 36.3403 35.8417 36.5995 35.8417 36.4807C35.8417 36.4267 35.9561 36.3295 36.0959 36.2539C36.2357 36.1783 36.3501 36.0487 36.3501 35.9623C36.3501 35.8651 36.4264 35.8327 36.5662 35.8759C36.6933 35.9191 36.7441 35.8975 36.6933 35.8219C36.6424 35.7571 36.706 35.6815 36.8204 35.6599C36.9983 35.6167 36.9856 35.6059 36.7695 35.5951C36.6043 35.5843 36.4645 35.4871 36.401 35.3359C36.3628 35.2063 36.2357 35.0119 36.1213 34.9039C36.0197 34.8067 35.9688 34.7203 36.007 34.7203C36.0578 34.7203 36.0324 34.5907 35.9561 34.4287C35.829 34.1479 35.8417 34.1479 36.0705 34.3207C36.4391 34.6015 36.5535 34.5367 36.223 34.2343C36.0578 34.0831 35.8036 33.9643 35.6638 33.9643C35.435 33.9535 35.4223 33.9427 35.6129 33.8563C35.74 33.7916 35.7909 33.662 35.7528 33.5216C35.7019 33.392 35.7528 33.2516 35.8544 33.1976C36.0832 33.0788 36.134 33.0788 36.0324 33.2084ZM40.8621 33.5216C40.8875 33.6512 40.8621 33.7268 40.7858 33.6944C40.7223 33.6512 40.6715 33.6728 40.6715 33.7376C40.6715 33.8024 40.5571 33.8995 40.4173 33.9643C40.2012 34.0615 40.1631 34.0507 40.1885 33.8132C40.2012 33.662 40.2393 33.5648 40.2775 33.5864C40.3029 33.6188 40.4173 33.5432 40.5189 33.4136C40.7223 33.1652 40.7858 33.1868 40.8621 33.5216ZM30.8722 33.6944C31.012 33.8995 31.0882 34.0723 31.0501 34.0723C30.8722 34.0723 30.5036 33.7052 30.5036 33.5108C30.5036 33.23 30.5671 33.2624 30.8722 33.6944ZM34.0623 33.4784C34.1259 33.446 34.1894 33.4568 34.1894 33.5216C34.1894 33.5756 34.1132 33.6512 34.0369 33.6728C33.9352 33.7052 33.9607 33.7376 34.1005 33.7376C34.2149 33.7484 34.3165 33.824 34.3165 33.9211C34.3165 34.0075 34.2657 34.0507 34.1894 34.0183C34.1259 33.9859 34.0623 34.0291 34.0623 34.1155C34.0623 34.3423 33.8844 34.3315 33.6175 34.1155C33.4396 33.9535 33.4396 33.9211 33.6048 33.7592C33.7827 33.5972 33.77 33.5756 33.5667 33.5756C33.4014 33.5756 33.3506 33.6512 33.376 33.824C33.3887 33.9643 33.3633 34.0507 33.3125 34.0183C33.2489 33.9967 33.2362 34.0831 33.2743 34.2343C33.3125 34.4395 33.2743 34.4935 33.0583 34.4719C32.8422 34.4611 32.8295 34.4395 32.9693 34.2883C33.071 34.2019 33.1218 34.0183 33.0964 33.8887C33.0329 33.5864 33.5158 33.2624 33.7573 33.4352C33.8463 33.5 33.9861 33.5216 34.0623 33.4784ZM35.6384 33.5864C35.6765 33.6728 35.6511 33.7484 35.5875 33.7484C35.5113 33.7484 35.4604 33.6728 35.4604 33.5864C35.4604 33.5 35.4858 33.4244 35.5113 33.4244C35.5367 33.4244 35.5875 33.5 35.6384 33.5864ZM42.2856 33.5972C42.2475 33.6296 42.1331 33.6404 42.0441 33.608C41.9424 33.5756 41.9806 33.5432 42.1204 33.5432C42.2602 33.5324 42.3364 33.5648 42.2856 33.5972ZM37.5194 33.9103C37.494 34.0615 37.5321 34.2451 37.6084 34.3207C37.7736 34.4935 37.6719 34.6123 37.3415 34.6123C37.189 34.6123 37.1127 34.6879 37.1127 34.8715C37.1127 35.2603 36.7695 35.3035 36.617 34.9363C36.5153 34.6771 36.5281 34.6339 36.6806 34.6879C36.7822 34.7203 36.8458 34.8175 36.8077 34.8931C36.7695 34.9795 36.795 35.0443 36.8585 35.0443C36.9348 35.0443 36.9856 34.9579 36.9856 34.8391C36.9856 34.7311 37.0746 34.5799 37.1763 34.5043C37.2779 34.4287 37.3669 34.2019 37.3669 34.0075C37.3669 33.8024 37.4177 33.6404 37.4813 33.6404C37.5321 33.6404 37.5575 33.7592 37.5194 33.9103ZM29.9444 34.2667C29.8173 34.3747 29.5758 34.1047 29.6775 33.9643C29.7537 33.8671 29.8046 33.8779 29.8935 34.0075C29.9698 34.1155 29.9825 34.2235 29.9444 34.2667ZM30.9484 34.1803C30.9993 34.2451 31.0882 34.2559 31.1645 34.2235C31.2408 34.1803 31.2662 34.2019 31.2281 34.2559C31.1391 34.3855 31.4314 34.6447 31.5585 34.5475C31.5966 34.5151 31.5331 34.6555 31.4187 34.8715C31.3043 35.0875 31.1772 35.2603 31.1391 35.2603C31.101 35.2603 30.9993 35.0551 30.9103 34.7959C30.8213 34.5475 30.7197 34.2775 30.6815 34.2019C30.5926 34.0507 30.834 34.0291 30.9484 34.1803ZM35.7273 34.1479C35.74 34.2019 35.7655 34.4071 35.7909 34.6123L35.829 34.9903L35.6511 34.6339C35.5494 34.4503 35.4096 34.2883 35.3333 34.2883C35.2698 34.2883 35.2062 34.2343 35.2062 34.1803C35.2062 34.0615 35.7019 34.0291 35.7273 34.1479ZM40.4935 34.6555C40.4046 35.0335 39.9216 35.3359 39.6928 35.1415C39.6165 35.0767 39.5149 35.1415 39.4005 35.3143C39.1844 35.6599 39.0827 35.6599 39.0446 35.2819C39.0192 35.0227 39.07 34.9795 39.3623 34.9687C39.5657 34.9687 39.7818 34.9579 39.858 34.9471C39.947 34.9471 39.9978 34.7743 39.9851 34.5691C39.9724 34.3639 39.9978 34.2127 40.036 34.2343C40.0741 34.2559 40.1885 34.2343 40.2902 34.1803C40.5317 34.0507 40.5952 34.2019 40.4935 34.6555ZM33.7573 34.4935C33.7573 34.7743 33.4904 34.7311 33.4777 34.4395C33.465 34.2883 33.5158 34.2127 33.6048 34.2451C33.6811 34.2667 33.7573 34.3855 33.7573 34.4935ZM38.282 35.1415C38.2439 35.4223 38.1549 35.5843 38.0278 35.6059C37.7609 35.6707 37.7609 35.2495 38.0024 34.7959C38.2185 34.4179 38.3456 34.5799 38.282 35.1415ZM43.2134 34.8175C43.2134 34.8823 43.1499 34.9579 43.0736 35.0011C42.9974 35.0335 42.9592 35.1631 42.9974 35.2711C43.0355 35.3899 42.9974 35.5087 42.9211 35.5627C42.8321 35.6059 42.6923 35.7247 42.5906 35.8327C42.4381 35.9947 42.4508 36.0487 42.6415 36.2323C42.7686 36.3511 42.8067 36.4483 42.7304 36.4483C42.5652 36.4483 42.5779 36.8803 42.7559 37.0963C42.8321 37.1827 42.7686 37.1719 42.6161 37.0531C42.4381 36.9235 42.2348 36.8803 42.0441 36.9127C41.8662 36.9559 41.6755 36.9127 41.5357 36.8047C41.3959 36.6967 41.3069 36.6751 41.3069 36.7507C41.3069 36.8263 41.2434 36.8803 41.1799 36.8803C41.0909 36.8803 41.0909 36.8155 41.1671 36.6859C41.2307 36.5887 41.3578 36.3403 41.434 36.1459C41.523 35.9623 41.6374 35.8003 41.6882 35.8003C41.8408 35.8003 41.7899 36.1675 41.612 36.3511C41.4722 36.4915 41.4722 36.5347 41.6755 36.6859C41.8789 36.8371 41.9297 36.8371 42.2093 36.6535C42.3746 36.5455 42.4508 36.4483 42.3619 36.4483C42.2856 36.4483 42.1712 36.4915 42.1331 36.5563C42.095 36.6103 41.9933 36.6643 41.9297 36.6643C41.8535 36.6643 41.8408 36.6211 41.8789 36.5563C41.9297 36.4915 41.8662 36.4807 41.7264 36.5239C41.523 36.5887 41.5103 36.5779 41.6882 36.3943C41.7899 36.2863 41.8916 36.0703 41.9043 35.9191C41.917 35.7679 41.9424 35.5411 41.9679 35.4331C41.9933 35.3251 41.9424 35.2063 41.8535 35.1847C41.7645 35.1631 41.5611 35.4655 41.3578 35.9407C41.0528 36.6535 40.9638 36.7615 40.5571 36.8911C40.3029 36.9775 40.0614 37.0531 39.9978 37.0747C39.947 37.0963 39.9343 37.0423 39.9851 36.9559C40.0233 36.8695 40.1885 36.7507 40.3664 36.6859C40.5317 36.6103 40.6715 36.4915 40.6715 36.4051C40.6715 36.3295 40.7604 36.1999 40.8621 36.1243C40.9765 36.0487 41.0273 35.9623 40.9892 35.9299C40.9638 35.8975 40.7986 35.9947 40.6333 36.1459C40.4681 36.2971 40.2012 36.4807 40.036 36.5563C39.7691 36.6751 39.7564 36.6751 39.8453 36.4915C39.9089 36.3727 39.947 36.1783 39.947 36.0487C39.9343 35.9191 39.9978 35.8219 40.0868 35.8327C40.1631 35.8435 40.2139 35.8003 40.2012 35.7463C40.1885 35.6707 40.3664 35.6491 40.646 35.6707C41.0528 35.7139 41.0909 35.7031 40.9511 35.5627C40.6587 35.2603 41.6882 34.8607 43.0609 34.7311C43.1372 34.7311 43.2134 34.7635 43.2134 34.8175ZM29.1691 35.2603C29.436 35.4979 29.6266 35.7247 29.5758 35.7571C29.4741 35.8435 28.8513 35.5087 28.8513 35.3683C28.8513 35.3035 28.7878 35.2603 28.7115 35.2603C28.648 35.2603 28.6098 35.3035 28.6607 35.3575C28.6988 35.4115 28.6607 35.4979 28.5844 35.5303C28.4954 35.5843 28.47 35.5303 28.4954 35.4007C28.5209 35.2819 28.4573 35.1091 28.3556 35.0119C28.2031 34.8499 28.2158 34.8283 28.4319 34.8283C28.559 34.8283 28.8894 35.0227 29.1691 35.2603ZM40.8494 35.2387C40.6842 35.3143 40.5698 35.4223 40.5952 35.4655C40.6333 35.5087 40.5189 35.5303 40.3283 35.4979C40.0487 35.4547 40.0105 35.4763 40.0868 35.6491C40.1376 35.7571 40.1376 35.8111 40.0868 35.7679C40.036 35.7247 39.8834 35.7679 39.7564 35.8759C39.5784 36.0163 39.5276 36.0163 39.5276 35.8975C39.5276 35.8111 39.5784 35.6707 39.6547 35.5843C39.7309 35.4871 39.7182 35.4007 39.6165 35.3467C39.5276 35.3035 39.642 35.2819 39.8453 35.3035C40.1122 35.3359 40.341 35.2711 40.6079 35.0875C40.8748 34.9039 41.0019 34.8715 41.0782 34.9687C41.129 35.0443 41.0528 35.1523 40.8494 35.2387ZM32.5753 35.3359C32.5245 35.4547 32.5372 35.4871 32.6388 35.4331C32.7278 35.3899 32.7914 35.4223 32.7914 35.5411C32.7914 35.7139 32.7659 35.7139 32.5372 35.5303C32.3338 35.3791 32.3211 35.3143 32.4355 35.2387C32.6643 35.1199 32.6643 35.1307 32.5753 35.3359ZM34.0878 35.4007C33.9988 35.4871 33.9734 35.5735 33.9988 35.6059C34.0369 35.6383 33.9607 35.6923 33.8082 35.7247C33.6683 35.7571 33.554 35.7355 33.554 35.6707C33.554 35.6167 33.5031 35.6059 33.4269 35.6383C33.3506 35.6707 33.3379 35.6275 33.376 35.5303C33.4269 35.4331 33.5412 35.3899 33.6811 35.4223C33.8209 35.4547 33.9352 35.4115 33.9861 35.3035C34.0369 35.2063 34.1005 35.1523 34.1513 35.1847C34.1894 35.2279 34.164 35.3251 34.0878 35.4007ZM43.7218 35.6815C43.3914 36.0811 43.2261 36.1351 43.5185 35.7463C43.6329 35.5951 43.6837 35.4763 43.6329 35.4763C43.5693 35.4763 43.6201 35.4331 43.7218 35.3683C44.0141 35.2063 44.0269 35.3359 43.7218 35.6815ZM36.3501 35.5195C36.3501 35.7679 36.1086 36.2323 35.9815 36.2323C35.918 36.2323 35.8417 36.1459 35.7909 36.0379C35.7528 35.9407 35.6765 35.7787 35.6384 35.6923C35.6002 35.5951 35.6257 35.6059 35.7146 35.7139C35.7909 35.8111 35.9307 35.8759 36.0324 35.8435C36.134 35.8003 36.1849 35.7355 36.1468 35.6815C36.1086 35.6275 36.007 35.6167 35.9307 35.6599C35.8417 35.7031 35.8544 35.6599 35.9561 35.5519C36.1722 35.3251 36.3501 35.3143 36.3501 35.5195ZM28.1269 35.8867C28.3048 36.0595 28.3175 36.1135 28.165 36.2863C27.9489 36.5455 27.7074 36.4051 27.7074 36.0055C27.7074 35.6491 27.8345 35.6059 28.1269 35.8867ZM29.1564 35.8327C29.4487 36.0163 29.3724 36.3835 29.042 36.4267C28.7496 36.4591 28.4319 36.1027 28.5463 35.8543C28.6352 35.6599 28.8513 35.6491 29.1564 35.8327ZM33.0964 36.1351C33.1472 36.0703 33.2489 36.0379 33.3125 36.0703C33.376 36.1027 33.3887 36.0595 33.3506 35.9731C33.3125 35.8759 33.3379 35.8003 33.4014 35.8003C33.4777 35.8003 33.5667 35.8975 33.6175 36.0055C33.6683 36.1459 33.77 36.1891 33.9607 36.1459C34.1513 36.1135 34.2022 36.1351 34.164 36.2431C34.1259 36.3295 34.0115 36.3835 33.9098 36.3835C33.8082 36.3727 33.7192 36.4375 33.7192 36.5131C33.7192 36.5995 33.77 36.6643 33.8336 36.6643C33.8971 36.6643 33.9098 36.7075 33.8717 36.7723C33.8336 36.8263 33.8844 36.8803 33.9861 36.8803C34.1005 36.8803 34.1894 36.9775 34.1894 37.0963C34.1894 37.2151 34.253 37.3123 34.3165 37.3123C34.3928 37.3123 34.4436 37.3879 34.4436 37.4743C34.4436 37.5607 34.3928 37.6363 34.3293 37.6363C34.1132 37.6363 33.9352 37.3339 34.0242 37.1395C34.1005 36.9451 34.0878 36.9451 33.859 37.1071C33.7319 37.2043 33.3633 37.3231 33.0456 37.3663C32.499 37.4419 32.4863 37.4419 32.6643 37.2475C32.8422 37.0639 32.8295 37.0531 32.6516 37.1827C32.4609 37.3015 32.4228 37.2799 32.3084 37.0099C32.2067 36.7615 32.2194 36.6535 32.3592 36.5455C32.4482 36.4591 32.5499 36.2755 32.588 36.1243C32.6134 35.9731 32.6516 35.8327 32.6643 35.8003C32.6643 35.7679 32.7532 35.8651 32.8422 36.0055C32.9566 36.1783 33.0456 36.2215 33.0964 36.1351ZM34.1259 35.9083C34.164 35.9623 34.0878 36.0163 33.948 36.0163C33.7954 36.0163 33.6811 35.9623 33.6811 35.9083C33.6811 35.8435 33.7573 35.8003 33.859 35.8003C33.9607 35.8003 34.0878 35.8435 34.1259 35.9083ZM42.9592 35.8759C42.9465 36.0703 42.7304 36.2539 42.6542 36.1351C42.6034 36.0703 42.6034 35.9623 42.6415 35.9083C42.7304 35.7787 42.9592 35.7679 42.9592 35.8759ZM29.8808 36.0271C30.0206 36.0811 30.0842 36.1891 30.046 36.2539C29.9952 36.3187 30.0079 36.3403 30.0842 36.3079C30.224 36.2323 30.8468 36.7399 30.7324 36.8371C30.6307 36.9235 30.1223 36.6859 30.1223 36.5563C30.1223 36.4915 30.0333 36.4483 29.9317 36.4483C29.83 36.4483 29.6902 36.3511 29.6139 36.2431C29.3978 35.8867 29.4614 35.8327 29.8808 36.0271ZM39.7818 36.2431C39.6165 36.4915 39.7055 36.8263 39.9089 36.7183C39.9851 36.6859 39.9978 36.7291 39.9597 36.8155C39.858 37.0315 39.8326 37.0315 39.553 36.7939C39.2988 36.5779 39.3242 36.3619 39.6293 36.1459C39.9089 35.9623 39.9343 35.9839 39.7818 36.2431ZM37.0364 36.2971C37.0746 36.3943 37.0873 36.5131 37.0364 36.5671C36.9983 36.6211 37.0237 36.6643 37.0746 36.6643C37.1381 36.6643 37.189 36.8371 37.2017 37.0423C37.2144 37.4743 37.1381 37.5067 36.8077 37.1935C36.6679 37.0531 36.4899 36.9883 36.3374 37.0207C36.2103 37.0531 36.0959 37.0315 36.0959 36.9775C36.0959 36.8695 36.3374 36.8371 36.8458 36.8803C37.1254 36.9019 37.1381 36.8911 36.9475 36.7291C36.8331 36.6319 36.7695 36.4699 36.8077 36.3619C36.8458 36.2647 36.7822 36.3079 36.6679 36.4699C36.5662 36.6427 36.3882 36.7723 36.2739 36.7723C36.1722 36.7723 36.0578 36.8479 36.0197 36.9343C35.9688 37.0315 35.829 37.0747 35.6638 37.0531C35.524 37.0315 35.4731 37.0423 35.5748 37.0639C35.7273 37.1071 35.7273 37.1287 35.5748 37.2151C35.435 37.2907 35.435 37.3123 35.6257 37.3123C35.74 37.3123 35.8417 37.3987 35.8417 37.4959C35.8417 37.6471 35.8671 37.6579 35.9561 37.5391C36.0197 37.4635 36.134 37.4311 36.223 37.4743C36.3374 37.5391 36.3374 37.5823 36.2103 37.6579C36.0705 37.7335 36.0832 37.7443 36.2611 37.7011C36.401 37.6687 36.4645 37.6795 36.4137 37.7551C36.312 37.8955 35.829 37.7659 35.6129 37.5391C35.5113 37.4419 35.4731 37.4311 35.524 37.4959C35.5621 37.5715 35.5367 37.6363 35.4731 37.6363C35.346 37.6363 35.2825 37.4851 35.3206 37.2799C35.3333 37.1827 35.0537 37.1827 34.8758 37.2907C34.7995 37.3339 34.7105 37.4527 34.6597 37.5499C34.6089 37.6795 34.6343 37.7119 34.7741 37.6687C34.8631 37.6363 34.9647 37.5283 34.9647 37.4311C34.9775 37.2799 34.9902 37.2691 35.041 37.4311C35.0664 37.5283 35.2189 37.6579 35.3715 37.7227C35.6257 37.8307 35.6129 37.8415 35.2062 37.8523C34.9647 37.8631 34.6597 37.8847 34.5453 37.9063C34.2911 37.9495 34.2403 37.7983 34.4564 37.6903C34.5199 37.6471 34.5707 37.4851 34.5453 37.3339C34.5072 37.0747 34.5453 37.0423 34.8885 37.0639L35.2698 37.0855L34.9266 36.9775C34.5199 36.8479 34.4691 36.7183 34.7741 36.6211C34.9012 36.5779 35.0537 36.6319 35.1427 36.7399C35.2825 36.9019 35.3079 36.9019 35.3842 36.6859C35.4858 36.4267 35.6511 36.3835 35.7909 36.5779C35.8544 36.6535 35.829 36.6643 35.7146 36.6103C35.6129 36.5563 35.5748 36.5671 35.6384 36.6427C35.7273 36.7723 36.3501 36.5455 36.6043 36.2863C36.8077 36.0811 36.9348 36.0811 37.0364 36.2971ZM37.3669 36.2323C37.3669 36.2863 37.3161 36.3403 37.2398 36.3403C37.1763 36.3403 37.1127 36.2863 37.1127 36.2323C37.1127 36.1675 37.1763 36.1243 37.2398 36.1243C37.3161 36.1243 37.3669 36.1675 37.3669 36.2323ZM28.6988 36.4483C28.8259 36.6211 28.8259 36.6643 28.6988 36.6643C28.4192 36.6643 28.1777 36.4807 28.2667 36.3511C28.3938 36.1783 28.5209 36.1999 28.6988 36.4483ZM35.3079 36.4807C35.346 36.6535 35.3206 36.6643 35.1173 36.5455C34.9266 36.4483 34.7868 36.4591 34.4691 36.5995C34.2403 36.6967 34.0496 36.7291 33.9988 36.6643C33.8971 36.5239 34.5072 36.2755 34.9266 36.2863C35.1554 36.2863 35.2825 36.3511 35.3079 36.4807ZM41.5611 37.0099C41.5611 37.0639 41.5103 37.0747 41.434 37.0423C41.3705 37.0099 41.3069 37.0207 41.3069 37.0747C41.3069 37.1395 41.218 37.2151 41.1036 37.2475C41.0019 37.2799 40.9511 37.2691 40.9892 37.2043C41.0273 37.1395 41.0146 37.0963 40.9638 37.0963C40.7604 37.0963 39.7691 38.0251 39.8707 38.1223C39.9343 38.1655 39.9089 38.1763 39.8326 38.1439C39.7564 38.1007 39.553 38.1979 39.4005 38.3383C39.0319 38.673 38.8412 38.6838 38.9683 38.3599C39.0192 38.2303 39.0573 38.0359 39.0446 37.9279C39.0446 37.8307 39.0827 37.7659 39.1463 37.7983C39.2098 37.8307 39.2861 37.7551 39.3369 37.6471C39.3751 37.5283 39.5276 37.3987 39.6674 37.3663C39.7945 37.3231 39.8834 37.2475 39.8453 37.1935C39.8072 37.1395 39.8453 37.1287 39.947 37.1503C40.036 37.1827 40.2902 37.1503 40.5062 37.0747C40.9765 36.9019 41.5611 36.8695 41.5611 37.0099ZM36.0959 37.2043C36.0959 37.2583 36.0324 37.3123 35.9561 37.3123C35.8926 37.3123 35.8671 37.2583 35.9053 37.2043C35.9434 37.1395 36.007 37.0963 36.0451 37.0963C36.0705 37.0963 36.0959 37.1395 36.0959 37.2043ZM36.8458 37.4635C37.1635 37.8847 37.189 38.1331 36.9221 38.2195C36.8204 38.2519 36.7314 38.2303 36.7314 38.1763C36.7314 38.1115 36.795 38.0683 36.8585 38.0683C36.9348 38.0683 36.9856 38.0143 36.9856 37.9387C36.9856 37.8415 36.9475 37.8415 36.8331 37.9387C36.617 38.1223 36.3374 38.1007 36.4264 37.9063C36.4772 37.8199 36.5916 37.7443 36.6933 37.7443C36.8331 37.7443 36.7822 37.6687 36.5535 37.5175C36.1849 37.2691 36.1213 37.0963 36.401 37.0963C36.5026 37.0963 36.706 37.2583 36.8458 37.4635ZM12.5827 37.4419C12.5827 37.5175 12.354 38.2087 12.087 38.9862L11.6041 40.3902L11.1338 40.4226C10.5873 40.4658 10.5746 40.563 11.299 38.673C11.693 37.6579 11.8074 37.4743 12.0743 37.4095C12.5446 37.3015 12.5827 37.3015 12.5827 37.4419ZM31.4568 37.5715C31.8508 37.6903 31.9779 37.7875 32.0034 38.0035C32.0288 38.1547 32.0034 38.2843 31.9652 38.2843C31.8381 38.2843 30.8849 37.5931 30.8849 37.4959C30.8849 37.3987 30.8595 37.3987 31.4568 37.5715ZM32.5372 37.5175C32.5372 37.5823 32.6897 37.5823 32.9185 37.5283C33.1854 37.4635 33.2998 37.4743 33.3125 37.5607C33.3125 37.6579 33.3379 37.6471 33.3887 37.5499C33.465 37.3663 33.5921 37.3879 33.9098 37.6147C34.1894 37.8307 34.1513 37.9711 33.7192 38.1655C33.3887 38.3059 33.2998 38.3167 33.2998 38.1871C33.2998 38.1331 33.4141 38.0467 33.5667 38.0143C33.8336 37.9387 33.8336 37.9387 33.5412 37.8091C33.2743 37.6903 33.1854 37.7119 32.7787 37.9819C32.5245 38.1439 32.2703 38.2843 32.2321 38.2843C32.1305 38.2843 32.1305 37.5823 32.2448 37.4959C32.3592 37.3879 32.5372 37.4095 32.5372 37.5175ZM10.8669 39.0078C10.4221 40.2174 10.2441 40.5522 10.1043 40.4334C10.0281 40.3578 10.9305 37.8415 11.1084 37.6471C11.388 37.3447 11.3117 37.7767 10.8669 39.0078ZM37.5575 37.8631C37.6719 38.0467 37.7355 38.2303 37.6847 38.2627C37.583 38.3491 37.2779 38.0575 37.1763 37.7659C37.0492 37.4095 37.3288 37.4743 37.5575 37.8631ZM10.6254 37.9279C10.5873 38.0359 10.3585 38.6298 10.1297 39.2562L9.71031 40.3902L8.47746 40.4226C7.80384 40.4334 7.2446 40.4334 7.2446 40.4226C7.2446 40.401 7.43525 39.9042 7.66403 39.3102L8.09616 38.2303L9.16379 37.9927C10.511 37.6903 10.7144 37.6903 10.6254 37.9279ZM33.1981 38.1871C33.16 38.4247 33.0201 38.5867 32.7024 38.7378C32.4736 38.8566 32.2957 38.9862 32.3338 39.0186C32.3719 39.0402 32.7659 38.8674 33.2108 38.619C33.9861 38.1979 34.8758 37.9603 35.7273 37.9603C35.9688 37.9603 36.4518 38.1871 37.1763 38.619C38.3201 39.321 38.2693 39.2454 38.3074 40.239C38.3201 40.4766 38.3074 40.4766 35.4604 40.455C33.4269 40.4334 32.5753 40.3902 32.5117 40.3038C32.4609 40.2282 32.4101 39.9474 32.4101 39.6666C32.4101 39.3858 32.3592 39.1374 32.2957 39.105C32.0669 38.9862 32.3211 38.4787 32.7151 38.2735C32.9312 38.1655 33.0583 38.0683 32.982 38.0683C32.893 38.0683 33.1345 37.8739 33.2489 37.8523C33.2489 37.8523 33.2235 38.0035 33.1981 38.1871ZM7.71487 38.4139C7.68945 38.4895 7.4988 38.9754 7.29544 39.4938C7.09209 40.0446 6.86331 40.4442 6.77434 40.4442C6.68537 40.4442 6.60911 40.4118 6.60911 40.3794C6.60911 40.293 7.35899 38.5003 7.44796 38.3815C7.54964 38.2303 7.79113 38.2627 7.71487 38.4139ZM32.0542 38.673C31.9906 38.9754 31.9271 38.9862 31.5712 38.7702C31.4187 38.6838 31.2789 38.6406 31.2408 38.6622C31.2153 38.6838 31.1899 38.619 31.1899 38.5219C31.1899 38.3707 31.2916 38.3491 31.6602 38.3707C32.0669 38.4031 32.105 38.4355 32.0542 38.673ZM6.62182 39.5262C6.30408 40.2822 6.21511 40.3902 5.92278 40.4226C5.74484 40.4442 5.59233 40.4118 5.59233 40.3578C5.59233 40.293 5.77026 39.861 5.98633 39.375C6.29137 38.6946 6.43117 38.5111 6.64724 38.4787C6.79976 38.4571 6.93957 38.4895 6.95228 38.5543C6.9777 38.6082 6.82518 39.051 6.62182 39.5262ZM3.69856 39.4722C3.6223 39.645 3.4952 39.9366 3.41894 40.1202C3.30456 40.3794 3.20288 40.4442 2.91055 40.4442C2.46571 40.4442 2.46571 40.3362 2.83429 39.6882C3.02494 39.3642 3.21559 39.1806 3.43165 39.1374C3.85108 39.051 3.8765 39.0834 3.69856 39.4722Z" fill="black"/>
<path d="M21.2887 21.7822C21.2633 21.8578 21.1235 22.3762 20.9964 22.927C20.8312 23.6397 20.793 23.9529 20.8947 24.0177C20.971 24.0609 22.0894 24.6333 23.3858 25.2705C24.6822 25.9077 26.0803 26.6097 26.4997 26.8257C28.2791 27.7653 29.4611 28.3484 29.6009 28.3484C29.6772 28.3484 29.7408 28.3916 29.7408 28.4456C29.7408 28.586 33.1851 30.206 33.3503 30.152C33.4393 30.1196 33.4774 29.774 33.452 29.234L33.4139 28.3592L31.7235 27.4305C30.7957 26.9229 29.9695 26.5125 29.8933 26.5125C29.8043 26.5125 29.7408 26.4693 29.7408 26.4153C29.7408 26.3073 23.4875 22.7434 21.5048 21.7174C21.4158 21.6742 21.3268 21.6958 21.2887 21.7822ZM22.2801 22.4626L22.9537 22.8406L22.8393 23.5749C22.6741 24.6549 22.7249 24.6225 21.8607 24.2229C21.187 23.9097 21.0981 23.8341 21.1489 23.5965C21.365 22.5922 21.5048 22.0846 21.5556 22.0846C21.581 22.0846 21.9115 22.2574 22.2801 22.4626ZM24.0213 23.4021L24.6695 23.7477L24.5806 24.5577C24.5424 25.0113 24.4789 25.4001 24.4535 25.4217C24.3899 25.4757 23.6527 25.1409 23.2587 24.8925C23.0045 24.7305 22.9918 24.6549 23.0808 23.8881C23.1316 23.4345 23.2079 23.0565 23.2714 23.0565C23.3223 23.0565 23.6655 23.2077 24.0213 23.4021ZM25.8007 24.3741L26.4616 24.7197L26.3854 25.2705C26.3472 25.5621 26.3091 25.9509 26.3091 26.1129V26.4261L25.7117 26.1345C24.7585 25.6701 24.7585 25.6701 24.8602 24.7953C24.8983 24.3741 24.9873 24.0285 25.0508 24.0285C25.1017 24.0285 25.4448 24.1797 25.8007 24.3741ZM27.9868 25.7673C28.0631 25.9617 27.936 27.1605 27.8343 27.1605C27.7707 27.1605 27.5292 27.0633 27.2878 26.9445L26.8429 26.7177L26.9065 26.0481C26.9954 25.0653 27.0081 25.0545 27.5038 25.3785C27.7453 25.5405 27.9614 25.7133 27.9868 25.7673ZM29.2069 26.3073C29.4484 26.4369 29.4866 26.5449 29.4866 27.2361C29.4866 27.6681 29.4484 28.0244 29.4103 28.0244C29.3722 28.0244 29.0798 27.8732 28.7621 27.6897L28.1902 27.3441L28.2664 26.7933C28.3045 26.4909 28.3427 26.1561 28.3427 26.0373C28.3427 25.8537 28.3681 25.8537 28.635 25.9941C28.7875 26.0805 29.0417 26.2209 29.2069 26.3073ZM30.5415 27.0957C30.7067 27.2037 30.7575 27.3981 30.7575 27.9596C30.7575 28.7048 30.7194 28.7588 30.3508 28.5212C30.1729 28.4132 30.122 28.2188 30.122 27.6573C30.122 26.9121 30.1602 26.8581 30.5415 27.0957ZM31.5964 27.6789C31.8125 27.8192 31.8887 28.0244 31.9396 28.532C32.0031 29.2448 31.9777 29.288 31.4693 29.0936C31.1897 28.9856 31.1515 28.8992 31.1134 28.2296C31.0753 27.4413 31.1388 27.3657 31.5964 27.6789ZM32.7784 28.3376C33.0326 28.4996 33.0962 28.6616 33.147 29.2016L33.1978 29.8712L32.7403 29.6876C32.2827 29.4932 32.2827 29.4932 32.2827 28.8128C32.2827 28.4348 32.3209 28.1324 32.3844 28.1324C32.4352 28.1324 32.6132 28.2296 32.7784 28.3376Z" fill="black"/>
<path d="M26.3857 28.8022C26.2586 29.623 26.0298 31.9234 26.068 31.9557C26.2967 32.1177 29.6775 33.0897 29.7665 33.0141C29.8301 32.9601 29.8555 32.2257 29.8428 31.3834L29.8046 29.839L28.1397 29.0938L26.462 28.3486L26.3857 28.8022ZM27.3898 29.029L27.8982 29.2774L27.86 30.7354C27.8346 31.5238 27.7965 32.1933 27.7838 32.2041C27.7711 32.2149 27.4279 32.1285 27.0339 31.9989C26.3603 31.7938 26.3094 31.7506 26.3603 31.4914C26.3984 31.3402 26.462 30.8434 26.5001 30.4006C26.6018 29.299 26.6907 28.7806 26.7924 28.7806C26.8433 28.7806 27.1102 28.8994 27.3898 29.029ZM29.0548 29.7742L29.6394 30.0226L29.5886 31.3402C29.5632 32.0637 29.5123 32.6901 29.4742 32.7225C29.4361 32.7549 29.0929 32.6685 28.7243 32.5389L28.0634 32.3013L28.1397 31.6642C28.1778 31.3078 28.2159 30.6814 28.2159 30.2818C28.2159 29.8714 28.2668 29.5366 28.343 29.5366C28.4066 29.5366 28.7243 29.6446 29.0548 29.7742Z" fill="black"/>
<path d="M19.2552 30.1197C19.09 30.6921 18.5562 33.0356 18.5562 33.1544C18.5562 33.2732 25.3813 35.2604 25.7753 35.2604C25.9024 35.2604 26.0931 33.8888 26.1058 32.8412L26.1185 32.312L25.1653 31.9772C24.6442 31.8044 23.1063 31.2537 21.759 30.7677C19.4331 29.9253 19.3187 29.8929 19.2552 30.1197ZM20.5897 30.6273C21.1108 30.8109 21.5684 30.9837 21.5811 30.9945C21.6319 31.0269 21.2252 33.662 21.1617 33.716C21.149 33.7376 20.6279 33.5972 19.9924 33.4136L18.8485 33.0896L18.9374 32.69C18.9883 32.474 19.1408 31.8368 19.2679 31.2861C19.395 30.7461 19.5221 30.2925 19.5729 30.2925C19.6111 30.2925 20.0686 30.4437 20.5897 30.6273ZM23.0046 31.5021C23.8816 31.8368 23.9197 31.8584 23.8434 32.1608C23.8053 32.3444 23.7291 32.8952 23.6782 33.392C23.6401 33.8888 23.5638 34.31 23.5257 34.3316C23.4621 34.3748 21.6065 33.878 21.5048 33.8024C21.4286 33.7376 21.8988 31.1565 21.9878 31.1565C22.0386 31.1565 22.4962 31.3077 23.0046 31.5021ZM25.2034 32.258C25.9279 32.5064 25.9406 32.5064 25.877 32.8844C25.8389 33.0896 25.7753 33.6404 25.7245 34.094C25.6864 34.5584 25.6101 34.9364 25.5593 34.9364C25.5084 34.9364 25.1144 34.8392 24.6823 34.7096C24.0722 34.5368 23.8943 34.4396 23.8943 34.2668C23.8943 33.662 24.212 32.0204 24.3264 32.0204C24.39 32.0204 24.784 32.1284 25.2034 32.258Z" fill="black"/>
<path d="M42.6161 30.8647C42.4509 31.0051 42.3238 31.1887 42.3238 31.2751C42.3238 31.3615 42.2602 31.4911 42.1713 31.5667C42.095 31.6315 42.0569 31.7179 42.0823 31.7503C42.1459 31.8043 43.0864 30.8107 43.0864 30.6811C43.0864 30.5515 42.8957 30.6271 42.6161 30.8647Z" fill="black"/>
<path d="M31.3936 32.5605C31.3936 32.6145 31.4571 32.6685 31.5207 32.6685C31.5969 32.6685 31.6478 32.6145 31.6478 32.5605C31.6478 32.4957 31.5969 32.4525 31.5207 32.4525C31.4571 32.4525 31.3936 32.4957 31.3936 32.5605Z" fill="black"/>
<path d="M26.6275 37.4202C26.7546 37.5498 26.9452 37.6146 27.0342 37.593C27.1231 37.5606 27.2248 37.5822 27.2757 37.647C27.3138 37.7118 27.4282 37.7334 27.5299 37.701C27.6188 37.6686 27.7332 37.6902 27.7713 37.7442C27.8857 37.8954 27.4028 37.8738 27.2248 37.7226C27.1231 37.6362 27.0723 37.6254 27.0723 37.7118C27.0723 37.7766 26.9198 37.8846 26.7291 37.9494C26.4114 38.0574 26.4114 38.0682 26.691 38.0034C26.869 37.971 27.2248 37.9494 27.4917 37.9602C27.8222 37.9602 27.962 37.9278 27.962 37.809C27.962 37.6578 27.2502 37.377 27.0723 37.4742C27.0215 37.5066 26.9071 37.4526 26.8181 37.3662C26.7291 37.2798 26.602 37.2042 26.5258 37.2042C26.4622 37.2042 26.5004 37.3014 26.6275 37.4202Z" fill="black"/>
<path d="M29.4867 37.5822C29.296 37.6686 29.2452 37.7334 29.3596 37.7334C29.5883 37.7442 29.9442 37.5606 29.868 37.485C29.8298 37.4634 29.6646 37.5066 29.4867 37.5822Z" fill="black"/>
<path d="M16.3189 22.7975C15.5563 23.2403 14.2091 24.0286 13.3321 24.5362L11.7434 25.4758L11.3494 26.4478C11.1333 26.9878 10.9935 27.463 11.0316 27.5062C11.0825 27.5494 12.4679 26.8474 14.1074 25.9402L17.0942 24.2878L17.2976 23.7586C17.7424 22.6247 17.9077 22.0847 17.806 22.0307C17.7424 22.0091 17.0815 22.3439 16.3189 22.7975ZM17.412 22.5815C17.412 22.6139 17.2976 22.9703 17.1578 23.3591C16.9799 23.8342 16.7765 24.1474 16.5858 24.277C16.3444 24.4282 16.2681 24.439 16.2681 24.3202C16.2681 23.9746 16.7002 22.9811 16.9417 22.7543C17.1959 22.5275 17.412 22.4411 17.412 22.5815ZM16.0266 23.9962C15.8233 24.5794 15.6834 24.7738 15.3911 24.925C15.1878 25.0222 14.9971 25.1086 14.959 25.1086C14.9209 25.1086 15.0225 24.7522 15.2005 24.3202C15.4293 23.7478 15.5945 23.4886 15.8614 23.3591C16.0393 23.2619 16.2173 23.1971 16.2427 23.2187C16.2681 23.2403 16.1664 23.5858 16.0266 23.9962ZM14.7429 24.7198C14.565 25.1842 14.3616 25.4758 14.1583 25.5946C13.9803 25.6918 13.8024 25.7566 13.777 25.735C13.6372 25.6162 14.2854 24.331 14.5777 24.1366C14.7683 24.0178 14.9336 23.9422 14.9717 23.9638C14.9971 23.9962 14.8954 24.331 14.7429 24.7198ZM13.5482 25.3786C13.383 25.7998 13.1669 26.1454 13.0017 26.2426C12.6458 26.4586 12.6458 26.4586 12.9763 25.5946C13.205 24.9898 13.4465 24.6874 13.7388 24.6766C13.777 24.6766 13.7007 24.9898 13.5482 25.3786ZM12.7093 25.4758C12.6585 25.6162 12.5441 25.9294 12.4552 26.167C12.3281 26.5666 11.6544 27.1714 11.4892 27.031C11.3621 26.9122 12.0103 25.6918 12.3153 25.465C12.7475 25.1518 12.8619 25.1518 12.7093 25.4758Z" fill="black"/>
<path d="M11.82 31.232L8.70612 32.474L7.9054 34.2776C6.88861 36.5239 6.91403 36.4483 7.15552 36.4483C7.33345 36.4483 12.8749 34.9579 13.5231 34.7311C13.7265 34.6663 13.9299 34.1804 14.5018 32.3876C15.1754 30.2924 15.2517 29.9468 15.0229 29.9792C14.9721 29.9792 13.5359 30.5516 11.82 31.232ZM14.5399 31.34C14.362 31.8692 14.0824 32.7548 13.9044 33.3164C13.5994 34.2884 13.3706 34.6123 13.002 34.6123C12.7733 34.6123 12.7733 34.6339 13.4215 32.5928C13.9934 30.8216 14.2349 30.4004 14.6797 30.4004C14.8068 30.4004 14.7687 30.638 14.5399 31.34ZM13.396 31.772C12.4047 34.8067 12.4301 34.7527 11.909 34.9255C11.6548 35.0011 11.4133 35.0551 11.3752 35.0335C11.3498 35.0011 11.6421 34.1156 12.0488 33.0572C12.7097 31.2644 12.786 31.124 13.1546 30.9944C13.3579 30.9188 13.574 30.8432 13.6248 30.8432C13.663 30.8324 13.5613 31.2536 13.396 31.772ZM12.2522 31.61C12.2013 31.7504 11.8963 32.6036 11.5531 33.5108C11.2227 34.4288 10.9303 35.1955 10.8922 35.2171C10.8668 35.2387 10.6507 35.2927 10.4219 35.3251C10.0915 35.3899 10.0152 35.3683 10.0661 35.2495C10.1042 35.1631 10.4347 34.3316 10.7905 33.392C11.3625 31.9556 11.515 31.6748 11.7946 31.5344C12.2649 31.3184 12.3538 31.34 12.2522 31.61ZM11.0193 32.042C10.9812 32.1176 10.6507 32.9384 10.2948 33.878C9.62122 35.5843 9.55768 35.6815 8.9476 35.6923C8.74425 35.6923 10.2186 32.2256 10.4982 32.0528C10.7905 31.88 11.0956 31.8692 11.0193 32.042ZM9.31619 33.716C8.99844 34.4827 8.6807 35.2603 8.60444 35.4655C8.47734 35.8003 7.94353 36.1243 7.5241 36.1243C7.46055 36.1243 7.75288 35.3575 8.1723 34.4072C8.84592 32.8736 8.97302 32.6792 9.3289 32.528C9.54497 32.4308 9.76103 32.3552 9.81187 32.3552C9.85 32.3444 9.63393 32.96 9.31619 33.716Z" fill="black"/>
<path d="M6.10087 33.5649L5.27473 33.9105L4.52485 35.5628C4.11814 36.47 3.8131 37.2476 3.86394 37.28C3.90207 37.3124 4.29608 37.2584 4.75363 37.1612L5.55435 36.9668L6.34236 35.1849C6.77449 34.1913 7.07953 33.3489 7.02869 33.3057C6.97785 33.2625 6.55843 33.3813 6.10087 33.5649ZM6.02461 35.1633C5.64332 36.0056 5.33828 36.7076 5.33828 36.7292C5.33828 36.7832 4.30879 37.01 4.25795 36.9668C4.24524 36.9452 4.52485 36.2756 4.89344 35.4764C5.52893 34.0833 5.57977 34.0185 6.05003 33.8457C6.31694 33.7377 6.58385 33.6513 6.63468 33.6513C6.67281 33.6405 6.40591 34.3317 6.02461 35.1633Z" fill="black"/>
<path d="M37.837 36.4483C37.8751 36.5671 37.926 36.6643 37.9514 36.6643C37.9768 36.6643 38.0022 36.5671 38.0022 36.4483C38.0022 36.3295 37.9514 36.2323 37.8878 36.2323C37.8243 36.2323 37.7989 36.3295 37.837 36.4483Z" fill="black"/>
<path d="M38.2566 38.0576C38.1677 38.2088 38.1677 38.2952 38.2693 38.3384C38.3456 38.3816 38.371 38.4788 38.3329 38.5652C38.2312 38.8027 38.3583 38.7488 38.5235 38.4896C38.6125 38.3492 38.6125 38.2844 38.5362 38.3276C38.3075 38.4464 38.2566 38.2088 38.4727 38.0576C38.6252 37.9496 38.6506 37.9496 38.5871 38.036C38.5362 38.1116 38.5617 38.1764 38.6252 38.1764C38.7015 38.1764 38.765 38.1008 38.765 38.0144C38.765 37.7768 38.4219 37.8092 38.2566 38.0576Z" fill="black"/>
<path d="M42.3238 35.606C42.1713 35.8435 42.1713 35.8435 42.4001 35.6708C42.5272 35.5628 42.5907 35.4548 42.5526 35.4116C42.5018 35.3792 42.4001 35.4656 42.3238 35.606Z" fill="black"/>
<path d="M33.3885 36.4375C33.325 36.6643 32.9183 36.7615 32.9183 36.5563C32.9183 36.5023 33.0199 36.4807 33.147 36.5131C33.3123 36.5671 33.325 36.5563 33.1852 36.4699C32.9564 36.3295 32.7149 36.4051 32.6005 36.6427C32.5115 36.8479 32.8801 37.1287 33.0962 37.0099C33.1852 36.9667 33.1216 36.9235 32.9564 36.9019C32.4861 36.8479 32.6259 36.6859 33.0962 36.7183C33.5537 36.7507 33.7444 36.5995 33.5537 36.3511C33.4902 36.2539 33.4394 36.2755 33.3885 36.4375Z" fill="black"/>
<path d="M33.4014 36.9559C33.4904 36.9883 33.6048 36.9775 33.6429 36.9451C33.6938 36.9127 33.6175 36.8803 33.4777 36.8911C33.3379 36.8911 33.2998 36.9235 33.4014 36.9559Z" fill="black"/>
<path d="M33.4903 37.6363C33.4522 37.6903 33.4776 37.7443 33.5412 37.7443C33.6174 37.7443 33.681 37.6903 33.681 37.6363C33.681 37.5715 33.6556 37.5283 33.6301 37.5283C33.592 37.5283 33.5285 37.5715 33.4903 37.6363Z" fill="black"/>
<path d="M14.68 8.19614C14.6292 8.40133 14.6164 9.48131 14.6419 10.6045C14.68 12.5376 14.6927 12.6672 15.0232 13.2504C15.468 14.0712 15.951 14.3304 16.9042 14.2872C17.7558 14.2332 18.1752 14.0064 18.5946 13.3368C19.192 12.4188 19.3191 10.9609 19.0013 9.07092C18.8997 8.47693 18.8107 7.95854 18.8107 7.90454C18.8107 7.86134 18.6963 7.82895 18.5565 7.82895C18.2515 7.82895 18.226 8.15294 18.4294 9.17892C18.6455 10.2481 18.62 12.0517 18.3786 12.6672C18.1116 13.326 17.832 13.5528 17.1711 13.6284C16.7136 13.6824 16.6119 13.65 16.2179 13.3152C15.4807 12.6888 15.3409 11.7385 15.557 8.98452L15.6586 7.82895H15.2011C14.7944 7.82895 14.7435 7.86134 14.68 8.19614Z" fill="black"/>
<path d="M23.8183 8.62817C23.6658 8.95217 23.831 9.50295 24.0725 9.54615C24.5555 9.62175 24.7461 9.01696 24.3649 8.60657C24.1996 8.43378 23.9073 8.44458 23.8183 8.62817Z" fill="black"/>
<path d="M20.9078 10.2049C20.3994 10.3777 20.0562 10.8204 20.0308 11.2848C20.0181 11.7816 20.196 11.9544 21.4162 12.6132C22.0644 12.9696 22.3059 13.38 21.9627 13.5636C21.6322 13.7472 20.9078 13.6608 20.4375 13.3908C19.9164 13.0884 19.5732 13.0452 19.5732 13.2612C19.5732 13.4664 20.0689 13.8444 20.6154 14.0388C21.7848 14.4492 23.0049 14.0604 23.0049 13.272C23.0049 12.6888 22.7126 12.3324 21.8102 11.8356C20.9459 11.3604 20.7171 11.058 20.9713 10.7988C21.1747 10.5936 21.7848 10.5936 22.0389 10.7988C22.3059 11.0256 22.6236 11.004 22.6236 10.7556C22.6236 10.2805 21.6195 9.95646 20.9078 10.2049Z" fill="black"/>
<path d="M31.393 10.3776C30.7066 10.6152 30.0076 11.6304 29.9949 12.4187C29.9949 12.9479 30.2491 13.5851 30.6049 13.9091C30.91 14.1899 31.0117 14.2115 31.5455 14.1683C31.9268 14.1467 32.2954 14.0279 32.5877 13.8443L33.0198 13.5527L33.1596 13.8875C33.274 14.1575 33.3503 14.2115 33.6299 14.1791L33.9603 14.1467L33.9858 12.3863C34.0239 10.4856 33.9858 10.3776 33.3884 10.6044C33.185 10.6908 33.0325 10.6692 32.791 10.518C32.3208 10.248 31.8886 10.2048 31.393 10.3776ZM32.6766 11.058C32.9944 11.328 33.0452 11.4576 33.0452 11.9543C33.0452 13.3151 31.6726 14.2007 31.0752 13.2287C30.6812 12.5699 30.9862 11.4576 31.7107 10.9824C32.1683 10.68 32.2318 10.68 32.6766 11.058Z" fill="black"/>
<path d="M27.4407 10.95C27.0594 11.2956 26.6527 11.7384 26.5637 11.922C26.3222 12.4188 26.1697 12.3324 26.2714 11.7384C26.3985 10.95 26.3858 10.8312 26.157 10.7016C25.8138 10.518 25.4961 10.7448 25.3944 11.2416C25.28 11.7816 25.2927 13.6283 25.4071 13.9847C25.4961 14.2763 25.9536 14.4059 26.2332 14.2115C26.3222 14.1467 26.4366 13.8119 26.4747 13.4771C26.5256 13.0667 26.7162 12.5808 27.0213 12.0624C27.5551 11.1768 27.8982 10.8852 28.1906 11.0904C28.3431 11.1984 28.3685 11.5224 28.3304 12.7428L28.2795 14.2547H28.6608C29.1311 14.2547 29.1946 14.0495 29.2201 12.5268C29.2328 11.0256 28.9659 10.3128 28.3685 10.3128C28.2541 10.3128 27.8347 10.6044 27.4407 10.95Z" fill="black"/>
<path d="M23.6656 10.9285C23.6148 11.0365 23.5767 11.8464 23.5767 12.7428V14.3628H23.958H24.3393L24.3774 12.6996C24.4155 11.0257 24.352 10.7449 23.9325 10.7449C23.8436 10.7449 23.7165 10.8313 23.6656 10.9285Z" fill="black"/>
<path d="M29.4359 42.1613C29.0165 42.5609 28.8131 44.0728 28.8767 46.492C28.9275 48.2848 28.9911 48.8139 29.1817 49.2999C29.3851 49.8075 29.474 49.8939 29.7409 49.8939C30.0206 49.8939 30.0587 49.8507 30.0206 49.5159C30.0078 49.3107 29.957 48.5223 29.9189 47.7772L29.8426 46.4056L30.2875 45.4552C30.8086 44.3644 31.0755 43.2089 30.9611 42.6581C30.8213 42.0209 29.9062 41.7185 29.4359 42.1613ZM30.3383 43.5113C30.3002 43.9972 30.1858 44.5804 30.0714 44.818C29.8807 45.2392 29.8807 45.2176 29.9443 44.008C30.0206 42.6149 30.0587 42.4529 30.262 42.5609C30.3637 42.6149 30.3891 42.9173 30.3383 43.5113Z" fill="black"/>
<path d="M50.6611 42.1938C50.0129 43.0794 49.8985 48.2201 50.5085 49.4513C50.7246 49.9049 51.0296 50.0453 51.2965 49.8185C51.4491 49.6889 51.4618 49.6025 51.3474 49.3433C51.2584 49.1705 51.1695 48.4685 51.1313 47.7773C51.0551 46.5569 51.0678 46.4921 51.4491 45.7254C51.9575 44.6778 52.2371 43.7274 52.2371 43.047C52.2371 42.5934 52.1735 42.4314 51.9193 42.2262C51.5126 41.8806 50.9153 41.8698 50.6611 42.1938ZM51.6524 42.669C51.6906 42.7662 51.7287 42.9822 51.7287 43.155C51.7287 43.5654 51.3601 45.0018 51.2076 45.1314C51.1059 45.2286 51.1695 43.5546 51.2965 42.8418C51.3601 42.4746 51.5253 42.3882 51.6524 42.669Z" fill="black"/>
<path d="M19.9799 42.4962C19.4333 42.777 18.8614 43.5654 18.5182 44.4942C18.1369 45.5742 18.1369 47.4749 18.5436 48.3497C18.8741 49.0841 19.6113 49.6889 20.2849 49.7969C21.3271 49.9589 23.0048 49.3541 23.0048 48.8141C23.0048 48.4577 22.7379 48.4685 22.0897 48.8681C21.6703 49.1273 21.4415 49.1921 20.9077 49.1921C20.2976 49.1921 20.1959 49.1597 19.8528 48.8141C19.1664 48.1553 19.0139 47.0213 19.3825 45.4554C19.7257 44.0946 20.2976 43.1658 20.9712 42.9282C21.4288 42.7662 21.7465 42.9282 22.1151 43.4898C22.4456 43.9974 22.8269 44.019 22.7887 43.533C22.7506 43.101 22.4329 42.7446 21.8609 42.4962C21.2254 42.2262 20.5137 42.2262 19.9799 42.4962Z" fill="black"/>
<path d="M0.940264 42.6043C0.711487 42.6799 0.647938 42.8419 0.520839 43.5223C0.228513 45.1854 0.419161 49.4297 0.800456 49.6565C0.978393 49.7645 3.81269 49.6673 4.38463 49.5377C4.67695 49.4729 4.77863 49.3757 4.80405 49.1382L4.85489 48.8358L4.23211 48.9114C3.90165 48.9546 3.17719 49.0086 2.64338 49.0518L1.65201 49.1166L1.62659 48.231C1.61389 47.7558 1.60118 47.2482 1.60118 47.1186C1.58847 46.8918 1.66472 46.8594 2.35106 46.7946C3.58391 46.665 3.71101 46.6218 3.66017 46.3518C3.62204 46.0926 3.52036 46.0818 2.23667 46.179L1.62659 46.2222L1.6393 44.9262C1.67743 42.9823 1.57576 43.1011 3.03739 43.1875C3.71101 43.2307 4.37192 43.2739 4.51173 43.2847C4.70237 43.3063 4.76592 43.2415 4.76592 43.0363C4.76592 42.7879 4.70237 42.7663 4.06688 42.7015C2.75777 42.5719 1.20717 42.5287 0.940264 42.6043Z" fill="black"/>
<path d="M32.3464 42.8417C32.2829 42.9929 32.0287 44.7965 32.0287 45.1097C32.0287 45.2609 31.927 45.2933 31.5584 45.2717C31.1517 45.2501 31.0754 45.2825 31.0754 45.4661C31.0754 45.6065 31.2152 45.7361 31.4694 45.8333L31.8634 45.9737L31.9524 47.2049C32.0541 48.5872 32.2575 49.3108 32.6769 49.6888C32.9184 49.9048 33.0836 49.948 33.6937 49.948C34.291 49.948 34.4181 49.9156 34.4817 49.7428C34.5706 49.4188 34.4054 49.3 33.8716 49.3324C33.1471 49.3648 33.0073 49.0624 32.9946 47.3777L32.9819 46.0385L33.4268 45.9089C33.7826 45.8117 33.8716 45.7361 33.8716 45.5201C33.8716 45.2825 33.8208 45.2501 33.503 45.2825L33.1344 45.3149L33.2361 44.3105C33.4013 42.6582 33.4268 42.7661 32.8802 42.7337C32.5752 42.7122 32.3846 42.7445 32.3464 42.8417Z" fill="black"/>
<path d="M6.4185 45.2393C5.389 46.1141 5.02042 48.2849 5.75759 49.2137C6.12617 49.6672 6.79979 49.8832 7.53696 49.7968C8.27413 49.6996 9.27821 49.1597 9.27821 48.8681C9.27821 48.5117 8.96047 48.5009 8.37581 48.8573C7.7149 49.2677 7.02857 49.3109 6.65999 48.9653C6.46934 48.7817 6.4185 48.5765 6.4185 47.8529C6.4185 46.8701 6.68541 46.1357 7.16838 45.7469C7.56238 45.4229 7.86742 45.4877 8.22329 45.9521C8.73169 46.6109 8.79524 46.6541 8.97318 46.4489C9.20195 46.1789 8.97318 45.7145 8.43936 45.3041C8.07078 45.0341 7.89284 44.9801 7.35903 44.9801C6.86334 44.9801 6.65999 45.0341 6.4185 45.2393Z" fill="black"/>
<path d="M10.8032 45.0989C10.1169 45.3365 9.45596 46.1033 9.59576 46.4921C9.72286 46.8377 10.0025 46.7405 10.2058 46.2869C10.8413 44.9477 12.4936 45.4445 12.7732 47.0537C12.9257 47.9501 12.3538 49.0948 11.6929 49.2028C11.0193 49.3108 10.6507 48.8032 10.8032 47.9825C10.9557 47.1293 10.4473 46.5137 9.93893 46.9457C9.69744 47.1509 9.74828 48.4253 10.0279 48.922C10.3329 49.4944 10.6761 49.7428 11.2735 49.8076C12.214 49.9156 13.1545 49.2676 13.5739 48.2309C13.8154 47.6585 13.7646 46.4057 13.485 45.8873C13.1291 45.2177 12.6843 44.9801 11.8327 44.9909C11.4387 44.9909 10.9811 45.0449 10.8032 45.0989Z" fill="black"/>
<path d="M46.5818 45.1638C46.0861 45.2717 45.5141 45.7469 45.171 46.3517C44.3194 47.8205 45.0185 49.7321 46.3911 49.7321C46.7851 49.7321 47.5604 49.4297 47.929 49.1273L48.2722 48.8573L48.3484 49.2353C48.4501 49.6673 48.7679 49.8077 49.2 49.6241C49.4161 49.5161 49.4542 49.4297 49.3906 49.1597C49.1873 48.3389 49.1873 47.8853 49.3398 46.8377C49.4415 46.2329 49.4796 45.6821 49.4288 45.6173C49.3779 45.5417 49.1364 45.5093 48.8568 45.5417C48.5391 45.5741 48.234 45.5309 47.9799 45.4013C47.535 45.1854 46.9504 45.0882 46.5818 45.1638ZM47.9036 46.1033C48.323 46.4705 48.3357 46.4921 48.2468 47.2049C48.1451 48.0797 47.7892 48.6953 47.2554 48.9329C46.8995 49.0949 46.8233 49.0949 46.442 48.9329C45.4887 48.5549 45.5777 46.9781 46.6199 46.0277C47.052 45.6389 47.3952 45.6605 47.9036 46.1033Z" fill="black"/>
<path d="M43.0099 45.4014C42.527 45.6498 41.7771 46.449 41.4721 47.043C41.1797 47.6262 41.0526 47.5722 41.1543 46.8918C41.3068 45.8118 41.2814 45.6822 40.8747 45.6498C40.6713 45.6282 40.4553 45.6606 40.3917 45.7146C40.1884 45.8874 40.0231 47.9502 40.1502 48.8358C40.29 49.7861 40.4044 49.9265 40.8874 49.7753C41.1924 49.6889 41.256 49.5917 41.3195 49.1381C41.4721 48.1878 42.349 46.665 43.0735 46.125C43.5056 45.7902 43.6709 46.0278 43.4929 46.719C43.2896 47.4642 43.3023 47.5722 43.5946 47.5722C43.9505 47.5722 44.103 47.1834 44.103 46.3194C44.103 45.207 43.8234 44.9802 43.0099 45.4014Z" fill="black"/>
<path d="M23.9961 45.4986C23.6529 45.5526 23.5767 45.963 23.5767 47.5181C23.5767 48.6629 23.6275 48.9977 23.8181 49.3325C24.2503 50.0777 24.9239 49.9589 26.0424 48.9221C26.3982 48.5873 26.6906 48.2633 26.6906 48.2093C26.6906 48.1445 26.7541 48.1337 26.8177 48.1661C26.8939 48.1985 26.9448 48.4361 26.9448 48.6845C26.9448 49.5377 27.1735 49.8185 27.7328 49.6673C27.9616 49.6133 27.9743 49.5269 27.9107 48.7277C27.8599 48.2093 27.898 47.4101 27.9997 46.7946C28.0887 46.2222 28.1395 45.7038 28.1141 45.639C28.0632 45.5094 27.3388 45.477 27.1227 45.6066C27.0464 45.6498 26.9448 45.9198 26.9066 46.2222C26.7922 46.9134 25.9153 48.4469 25.4196 48.8033C24.6443 49.3541 24.4536 48.9329 24.5934 46.9242C24.6697 45.6498 24.657 45.5418 24.4409 45.4986C24.3138 45.477 24.1105 45.477 23.9961 45.4986Z" fill="black"/>
<path d="M38.5489 45.5202C38.3837 45.5742 38.2566 45.639 38.2566 45.6498C38.2438 46.0926 37.9261 47.0646 37.6084 47.6046C37.2016 48.3282 36.4899 49.0842 36.2484 49.0842C35.9307 49.0842 35.7908 48.5874 35.829 47.5722C35.9307 45.3582 35.9688 45.5742 35.4731 45.5742C35.0791 45.5742 35.0155 45.6174 34.9139 45.9522C34.8503 46.1574 34.8249 46.935 34.8503 47.6802C34.8884 49.2138 35.1172 49.7537 35.74 49.8185C36.1467 49.8617 37.0237 49.311 37.6211 48.6198L38.0659 48.1122L38.193 48.8142C38.3455 49.6457 38.498 49.8185 38.9429 49.6457C39.2352 49.5378 39.2479 49.5054 39.1844 48.663C39.1462 48.1878 39.1844 47.3346 39.2733 46.7514C39.4259 45.7686 39.4259 45.693 39.2098 45.5526C38.9429 45.3906 38.9302 45.3906 38.5489 45.5202Z" fill="black"/>
<path d="M14.9974 47.1292C14.6543 47.1832 14.5399 47.2588 14.5145 47.4424L14.4636 47.6908L15.9125 47.6152C17.3996 47.5396 17.6284 47.4856 17.5013 47.2048C17.4377 47.0644 17.2217 47.032 16.4336 47.0428C15.8871 47.0536 15.2389 47.086 14.9974 47.1292Z" fill="black"/>
<path d="M0.254395 51.4816V51.8596L19.9165 51.9244C30.7199 51.9676 42.5908 52 46.2894 52H53.0002V51.622V51.244H37.1383C28.4067 51.244 16.5357 51.2116 10.7654 51.1684L0.254395 51.1036V51.4816Z" fill="black"/>
</svg>
