<svg width="30" height="30" viewBox="0 0 30 30" fill="none" xmlns="http://www.w3.org/2000/svg">
<path d="M30 15C30 15.442 29.8683 15.866 29.6339 16.1785C29.3995 16.4911 29.0815 16.6667 28.75 16.6667H1.25C0.918479 16.6667 0.600537 16.4911 0.366117 16.1785C0.131696 15.866 0 15.442 0 15C0 14.558 0.131696 14.134 0.366117 13.8215C0.600537 13.5089 0.918479 13.3333 1.25 13.3333H28.75C29.0815 13.3333 29.3995 13.5089 29.6339 13.8215C29.8683 14.134 30 14.558 30 15ZM1.25 3.33333H28.75C29.0815 3.33333 29.3995 3.15774 29.6339 2.84518C29.8683 2.53262 30 2.10869 30 1.66667C30 1.22464 29.8683 0.800716 29.6339 0.488156C29.3995 0.175595 29.0815 0 28.75 0H1.25C0.918479 0 0.600537 0.175595 0.366117 0.488156C0.131696 0.800716 0 1.22464 0 1.66667C0 2.10869 0.131696 2.53262 0.366117 2.84518C0.600537 3.15774 0.918479 3.33333 1.25 3.33333ZM28.75 26.6667H1.25C0.918479 26.6667 0.600537 26.8423 0.366117 27.1548C0.131696 27.4674 0 27.8913 0 28.3333C0 28.7754 0.131696 29.1993 0.366117 29.5118C0.600537 29.8244 0.918479 30 1.25 30H28.75C29.0815 30 29.3995 29.8244 29.6339 29.5118C29.8683 29.1993 30 28.7754 30 28.3333C30 27.8913 29.8683 27.4674 29.6339 27.1548C29.3995 26.8423 29.0815 26.6667 28.75 26.6667Z" fill="white"/>
</svg>
