<svg xmlns:xlink="http://www.w3.org/1999/xlink" xmlns="http://www.w3.org/2000/svg" width="117" height="54" viewBox="0 0 117 54" fill="none">
<path fill-rule="evenodd" clip-rule="evenodd" d="M115.416 1.52405H114.528H113.584L112.217 6.47199H113.481L113.698 5.61215H114.528H115.328L115.571 6.47199H116.804L115.416 1.52405ZM114.528 4.65448H113.956L114.503 2.50746H114.528L115.086 4.65448H114.528Z" fill="white"/>
<path fill-rule="evenodd" clip-rule="evenodd" d="M109.663 3.06345C109.663 1.49309 108.816 1.48279 107.645 1.48279C106.314 1.48279 105.488 1.72993 105.488 3.37238V4.64926C105.488 6.25567 106.216 6.51311 107.645 6.51311C109.276 6.51311 109.663 6.20933 109.663 4.54629V3.671H107.599V4.58748H108.429C108.429 5.27741 108.27 5.42157 107.645 5.42157C107.016 5.42157 106.742 5.3289 106.742 4.45876V3.65041C106.753 2.8575 106.778 2.56402 107.645 2.56402C108.012 2.56402 108.409 2.55373 108.429 3.06345H109.663Z" fill="white"/>
<path d="M111.69 1.52405H110.483V6.47199H111.69V1.52405Z" fill="white"/>
<path fill-rule="evenodd" clip-rule="evenodd" d="M102.774 1.48279C101.541 1.48279 100.674 1.77627 100.674 3.30029V4.70075C100.674 6.21448 101.541 6.50796 102.774 6.50796C104.007 6.50796 104.874 6.21448 104.874 4.70075V3.30029C104.874 1.77627 104.007 1.48279 102.774 1.48279ZM103.631 4.55659C103.631 5.29286 103.404 5.37009 102.774 5.37009C102.145 5.37009 101.943 5.29286 101.918 4.55659V3.43416C101.938 2.69789 102.145 2.63096 102.774 2.63096C103.399 2.63096 103.631 2.69789 103.631 3.43416V4.55659Z" fill="white"/>
<path fill-rule="evenodd" clip-rule="evenodd" d="M98.2697 1.52405H97.0623V6.47714H100.163V5.32382H98.2697V1.52405Z" fill="white"/>
<path fill-rule="evenodd" clip-rule="evenodd" d="M94.1882 1.48279C92.9549 1.48279 92.0778 1.77627 92.0778 3.30029V4.70075C92.0778 6.21448 92.9549 6.50796 94.1882 6.50796C95.4214 6.50796 96.2883 6.21448 96.2883 4.70075V3.30029C96.2883 1.77627 95.4214 1.48279 94.1882 1.48279ZM95.0447 4.55659C95.0447 5.29286 94.8177 5.37009 94.1882 5.37009C93.5587 5.37009 93.3574 5.29286 93.3316 4.55659V3.43416C93.3523 2.69789 93.5587 2.63096 94.1882 2.63096C94.8177 2.63096 95.0447 2.69789 95.0447 3.43416V4.55659Z" fill="white"/>
<path fill-rule="evenodd" clip-rule="evenodd" d="M68.1618 2.60013H70.2258V1.52405H66.9441V6.47714H70.2722V5.39075H68.1618V4.42794H70.1019V3.50116H68.1618V2.60013Z" fill="white"/>
<path fill-rule="evenodd" clip-rule="evenodd" d="M75.9945 2.66707H77.2174V1.52405H73.6262V2.66707H74.7871V6.47714H75.9945V2.66707Z" fill="white"/>
<path fill-rule="evenodd" clip-rule="evenodd" d="M79.0389 2.60013H81.1029V1.52405H77.8212V6.47714H81.1493V5.39075H79.0389V4.42794H80.979V3.50116H79.0389V2.60013Z" fill="white"/>
<path fill-rule="evenodd" clip-rule="evenodd" d="M84.7302 4.59778V4.74709C84.7302 5.32375 84.4774 5.37009 83.9769 5.37009C83.2597 5.37009 83.2235 5.07661 83.2235 4.34034V3.57318C83.2235 2.86265 83.2906 2.63611 83.9769 2.63611C84.4 2.63611 84.6735 2.67215 84.7199 3.10979V3.30029H85.9738V3.10979C85.948 1.61666 85.37 1.48279 84.1162 1.48279C82.785 1.48279 81.9749 1.71963 81.9749 3.35693V4.63382C81.9749 6.44103 82.8882 6.50796 84.1162 6.50796C84.6425 6.50796 85.143 6.51826 85.5661 6.14755C85.9789 5.77684 85.9789 5.28771 85.9789 4.74709V4.59778H84.7302Z" fill="white"/>
<path fill-rule="evenodd" clip-rule="evenodd" d="M87.8983 2.66707H87.9447L89.2295 6.47714H91.2935V1.52405H90.0861L90.1532 5.32382H90.1067L88.8116 1.52405H86.7579V6.47714H87.9757L87.8983 2.66707Z" fill="white"/>
<path fill-rule="evenodd" clip-rule="evenodd" d="M64.2662 1.52405H64.0133H61.9597V6.47199H64.0133H64.4261C65.6903 6.47199 66.0928 5.8284 66.0928 4.46913V3.44968C66.0876 2.03377 65.5303 1.52405 64.2662 1.52405ZM64.8441 4.47428C64.8441 4.9943 64.6841 5.32382 64.2301 5.32382H64.0133H63.1671V2.66707H64.0133H64.2301C64.6635 2.66707 64.8441 2.80094 64.8441 3.44453V4.47428Z" fill="white"/>
<path fill-rule="evenodd" clip-rule="evenodd" d="M56.9546 0L56.5109 0.293478L55.7266 0.792906L55.8968 1.19966L56.5109 0.993707L57.2642 0.73627L56.9546 0Z" fill="white"/>
<path fill-rule="evenodd" clip-rule="evenodd" d="M57.3984 1.52405H56.5109H55.5666L54.1993 6.47199H55.4634L55.6802 5.61215H56.5109H57.3107L57.548 6.47199H58.7812L57.3984 1.52405ZM56.5109 4.65448H55.9382L56.4954 2.50746H56.5057L57.063 4.65448H56.5109Z" fill="white"/>
<path fill-rule="evenodd" clip-rule="evenodd" d="M52.4655 1.52405V4.73686C52.4655 5.31352 52.2952 5.37016 51.7792 5.37016C51.2684 5.37016 50.9691 5.35986 50.9691 4.7935V1.52405H49.7617V4.82439C49.7617 6.0086 49.9578 6.50803 51.7792 6.50803C53.1002 6.50803 53.6729 6.13732 53.6729 4.82439V1.52405H52.4655Z" fill="white"/>
<path fill-rule="evenodd" clip-rule="evenodd" d="M47.8578 1.52405H46.9548H46.0106L44.6432 6.47199H45.9074L46.1344 5.61215H46.9548H47.7649L47.9919 6.47199H49.2355L47.8578 1.52405ZM46.96 4.65448H46.4027L46.9496 2.50746H46.96L47.5172 4.65448H46.96Z" fill="white"/>
<path fill-rule="evenodd" clip-rule="evenodd" d="M39.6071 2.67737H39.6484L40.8145 6.47714H41.862L43.0126 2.67737H43.0488L42.9352 6.47714H44.1427V1.52405H42.1716L41.3512 4.63389H41.3047L40.4379 1.52405H38.5236V6.47714H39.731L39.6071 2.67737Z" fill="white"/>
<path d="M1.41383 1.52405H0.206421V6.47199H1.41383V1.52405Z" fill="white"/>
<path fill-rule="evenodd" clip-rule="evenodd" d="M32.8993 1.48279C31.6661 1.48279 30.7993 1.77627 30.7993 3.30029V4.70075C30.7993 6.21448 31.6661 6.50796 32.8993 6.50796C34.1325 6.50796 34.9942 6.21448 34.9942 4.70075V3.30029C34.9994 1.77627 34.1325 1.48279 32.8993 1.48279ZM33.7559 4.55659C33.7559 5.29286 33.5288 5.37009 32.8993 5.37009C32.2698 5.37009 32.0686 5.29286 32.0428 4.55659V3.43416C32.0634 2.69789 32.2698 2.63096 32.8993 2.63096C33.5237 2.63096 33.7559 2.69789 33.7559 3.43416V4.55659Z" fill="white"/>
<path fill-rule="evenodd" clip-rule="evenodd" d="M3.51387 2.66707H3.57062L4.84511 6.47714H6.91938V1.52405H5.70165L5.77905 5.32382H5.72229L4.422 1.52405H2.37354V6.47714H3.59126L3.51387 2.66707Z" fill="white"/>
<path fill-rule="evenodd" clip-rule="evenodd" d="M9.43744 3.42389C9.11753 3.40329 8.94725 3.37755 8.94725 2.98109C8.94725 2.70821 8.99369 2.56405 9.65416 2.56405C10.134 2.56405 10.3249 2.56405 10.3249 3.07377H11.4859V2.86782C11.4859 1.49826 10.6448 1.47766 9.649 1.47766C8.46223 1.47766 7.72437 1.57034 7.72437 2.99139C7.72437 4.40215 8.38483 4.40215 9.50452 4.48453L9.76767 4.50512C10.3353 4.55146 10.4075 4.54116 10.4075 4.96851C10.4075 5.38556 10.2269 5.4216 9.65416 5.4216C9.06077 5.4216 8.8905 5.37526 8.8905 4.85524H7.72953C7.72953 6.48224 8.49319 6.50283 9.65416 6.50283C11.651 6.50283 11.6149 5.69963 11.6149 4.88613C11.6149 3.74311 11.2847 3.5629 9.93795 3.44963L9.43744 3.42389Z" fill="white"/>
<path fill-rule="evenodd" clip-rule="evenodd" d="M14.4424 2.66707H15.6653V1.52405H12.0637V2.66707H13.2247V6.47714H14.4424V2.66707Z" fill="white"/>
<path d="M17.4661 1.52405H16.2587V6.47199H17.4661V1.52405Z" fill="white"/>
<path fill-rule="evenodd" clip-rule="evenodd" d="M20.4434 2.66707H21.6715V1.52405H18.0699V2.66707H19.2309V6.47714H20.4434V2.66707Z" fill="white"/>
<path fill-rule="evenodd" clip-rule="evenodd" d="M24.9686 1.52405V4.73686C24.9686 5.31352 24.7983 5.37016 24.2823 5.37016C23.7664 5.37016 23.4826 5.35986 23.4826 4.7935V1.52405H22.2648V4.82439C22.2648 6.0086 22.4609 6.50803 24.2823 6.50803C25.6136 6.50803 26.1863 6.13732 26.1863 4.82439V1.52405H24.9686Z" fill="white"/>
<path fill-rule="evenodd" clip-rule="evenodd" d="M29.1636 2.66707H30.3813V1.52405H26.7797V2.66707H27.9407V6.47714H29.1636V2.66707Z" fill="white"/>
<path fill-rule="evenodd" clip-rule="evenodd" d="M110.757 22.1963L109.271 23.0561L106.722 24.5493L107.279 25.7592L109.271 25.1362L111.737 24.3691L110.757 22.1963Z" fill="white"/>
<path fill-rule="evenodd" clip-rule="evenodd" d="M112.191 26.7168H109.271H106.18L101.747 41.3856H105.85L106.577 38.8678H109.265H111.887L112.661 41.3856H116.685L112.191 26.7168ZM109.271 36.0103H107.434L109.224 29.6567H109.271L111.107 36.0103H109.271Z" fill="white"/>
<path fill-rule="evenodd" clip-rule="evenodd" d="M96.3812 26.7168V36.2317C96.3812 37.9616 95.8136 38.0955 94.1366 38.0955C92.4855 38.0955 91.5258 38.0749 91.5258 36.4119V26.7168H87.5836V36.4943C87.5836 40.0211 88.2131 41.5143 94.1366 41.5143C98.4812 41.5143 100.339 40.4073 100.339 36.4943V26.7168H96.3812Z" fill="white"/>
<path fill-rule="evenodd" clip-rule="evenodd" d="M55.0661 30.1407H55.1899L58.9721 41.3856H62.3828L66.134 30.1407H66.2682L65.8709 41.3856H69.8285V26.7168H63.4096L60.7161 35.9279H60.582L57.775 26.7168H51.5161V41.3856H55.4634L55.0661 30.1407Z" fill="white"/>
<path fill-rule="evenodd" clip-rule="evenodd" d="M81.6394 26.7168H78.7189H75.6436L71.1958 41.3856H75.3134L76.0409 38.8678H78.7189H81.3401L82.1141 41.3856H86.1388L81.6394 26.7168ZM78.7189 36.0103H76.882L78.688 29.6567H78.7241L80.561 36.0103H78.7189Z" fill="white"/>
<path d="M117 48.4497H50.3655V54.0001H117V48.4497Z" fill="white"/>
<path d="M117 13.6648H50.3655V19.2151H117V13.6648Z" fill="white"/>
<path fill-rule="evenodd" clip-rule="evenodd" d="M20.3505 19.8586H6.2486V47.806H20.3505H34.4524V19.8586H20.3505ZM20.3505 47.6258C12.6778 47.6258 6.42919 41.4216 6.42919 33.8272C6.42919 26.2328 12.6778 20.0388 20.3505 20.0388C28.0129 20.0388 34.2718 26.2328 34.2718 33.8272C34.2718 41.4216 28.0129 47.6258 20.3505 47.6258Z" fill="white"/>
<path fill-rule="evenodd" clip-rule="evenodd" d="M20.3505 13.6648H0V54H20.3505H40.701V13.6648H20.3505ZM20.3505 53.7271C9.29292 53.7271 0.263153 44.7889 0.263153 33.8273C0.263153 22.8759 9.29292 13.9222 20.3505 13.9222C31.4081 13.9222 40.4276 22.8759 40.4276 33.8273C40.4276 44.7889 31.4081 53.7271 20.3505 53.7271Z" fill="white"/>
</svg>